<?xml version="1.0" encoding="utf-8" standalone="no"?>
<!DOCTYPE svg PUBLIC "-//W3C//DTD SVG 1.1//EN"
  "http://www.w3.org/Graphics/SVG/1.1/DTD/svg11.dtd">
<svg xmlns:xlink="http://www.w3.org/1999/xlink" width="720pt" height="432pt" viewBox="0 0 720 432" xmlns="http://www.w3.org/2000/svg" version="1.1">
 <metadata>
  <rdf:RDF xmlns:dc="http://purl.org/dc/elements/1.1/" xmlns:cc="http://creativecommons.org/ns#" xmlns:rdf="http://www.w3.org/1999/02/22-rdf-syntax-ns#">
   <cc:Work>
    <dc:type rdf:resource="http://purl.org/dc/dcmitype/StillImage"/>
    <dc:date>2024-07-04T22:42:10.269342</dc:date>
    <dc:format>image/svg+xml</dc:format>
    <dc:creator>
     <cc:Agent>
      <dc:title>Matplotlib v3.8.3, https://matplotlib.org/</dc:title>
     </cc:Agent>
    </dc:creator>
   </cc:Work>
  </rdf:RDF>
 </metadata>
 <defs>
  <style type="text/css">*{stroke-linejoin: round; stroke-linecap: butt}</style>
 </defs>
 <g id="figure_1">
  <g id="patch_1">
   <path d="M 0 432 
L 720 432 
L 720 0 
L 0 0 
z
" style="fill: #ffffff"/>
  </g>
  <g id="axes_1">
   <g id="patch_2">
    <path d="M 69.59 381.4 
L 581.278 381.4 
L 581.278 31.2 
L 69.59 31.2 
z
" style="fill: #ffffff"/>
   </g>
   <g id="QuadContourSet_1">
    <path d="M 74.758566 381.4 
L 79.927131 381.4 
L 85.095697 381.4 
L 90.264263 381.4 
L 95.432828 381.4 
L 100.601394 381.4 
L 105.76996 381.4 
L 110.938525 381.4 
L 116.107091 381.4 
L 121.275657 381.4 
L 126.444222 381.4 
L 131.612788 381.4 
L 136.781354 381.4 
L 141.949919 381.4 
L 147.118485 381.4 
L 152.287051 381.4 
L 157.455616 381.4 
L 162.624182 381.4 
L 167.792747 381.4 
L 172.961313 381.4 
L 178.129879 381.4 
L 183.298444 381.4 
L 188.46701 381.4 
L 193.635576 381.4 
L 198.804141 381.4 
L 203.972707 381.4 
L 209.141273 381.4 
L 214.309838 381.4 
L 219.478404 381.4 
L 224.64697 381.4 
L 229.815535 381.4 
L 234.984101 381.4 
L 240.152667 381.4 
L 245.321232 381.4 
L 250.489798 381.4 
L 255.658364 381.4 
L 260.826929 381.4 
L 265.995495 381.4 
L 271.164061 381.4 
L 276.332626 381.4 
L 281.501192 381.4 
L 286.669758 381.4 
L 291.838323 381.4 
L 297.006889 381.4 
L 302.175455 381.4 
L 307.34402 381.4 
L 312.512586 381.4 
L 317.681152 381.4 
L 322.849717 381.4 
L 328.018283 381.4 
L 333.186848 381.4 
L 338.355414 381.4 
L 343.52398 381.4 
L 348.692545 381.4 
L 353.861111 381.4 
L 359.029677 381.4 
L 364.198242 381.4 
L 369.366808 381.4 
L 374.535374 381.4 
L 379.703939 381.4 
L 384.872505 381.4 
L 390.041071 381.4 
L 395.209636 381.4 
L 400.378202 381.4 
L 405.546768 381.4 
L 410.715333 381.4 
L 415.883899 381.4 
L 421.052465 381.4 
L 426.22103 381.4 
L 431.389596 381.4 
L 436.558162 381.4 
L 441.726727 381.4 
L 446.895293 381.4 
L 452.063859 381.4 
L 457.232424 381.4 
L 462.40099 381.4 
L 467.569556 381.4 
L 472.738121 381.4 
L 477.906687 381.4 
L 483.075253 381.4 
L 488.243818 381.4 
L 493.412384 381.4 
L 498.580949 381.4 
L 503.749515 381.4 
L 508.918081 381.4 
L 514.086646 381.4 
L 519.255212 381.4 
L 524.423778 381.4 
L 529.592343 381.4 
L 534.760909 381.4 
L 539.929475 381.4 
L 545.09804 381.4 
L 550.266606 381.4 
L 555.435172 381.4 
L 560.603737 381.4 
L 565.772303 381.4 
L 570.940869 381.4 
L 576.109434 381.4 
L 581.278 381.4 
L 581.278 377.862626 
L 581.278 374.325253 
L 581.278 372.615811 
L 577.694608 370.787879 
L 576.109434 369.984227 
L 570.940869 367.440095 
L 570.555474 367.250505 
L 565.772303 364.933184 
L 562.913314 363.713131 
L 560.603737 362.759469 
L 555.435172 360.601084 
L 554.421657 360.175758 
L 550.266606 358.460042 
L 545.925614 356.638384 
L 545.09804 356.296655 
L 539.929475 354.153792 
L 537.420762 353.10101 
L 534.760909 352.017318 
L 529.592343 349.913622 
L 528.727112 349.563636 
L 524.423778 347.897815 
L 519.525729 346.026263 
L 519.255212 345.926625 
L 514.086646 344.020566 
L 510.010777 342.488889 
L 508.918081 342.086417 
L 503.749515 340.187645 
L 500.352472 338.951515 
L 498.580949 338.320101 
L 493.412384 336.463229 
L 490.529365 335.414141 
L 488.243818 334.599513 
L 483.075253 332.738393 
L 480.707414 331.876768 
L 477.906687 330.87853 
L 472.738121 329.013135 
L 470.886626 328.339394 
L 467.569556 327.157118 
L 462.40099 325.29039 
L 461.052151 324.80202 
L 457.232424 323.44779 
L 452.063859 321.584389 
L 451.177563 321.264646 
L 446.895293 319.751461 
L 441.726727 317.895111 
L 441.249311 317.727273 
L 436.558162 316.113546 
L 431.389596 314.379408 
L 430.800296 314.189899 
L 426.22103 312.759502 
L 421.052465 311.120655 
L 419.577666 310.652525 
L 415.883899 309.504374 
L 410.715333 307.868563 
L 408.356535 307.115152 
L 405.546768 306.23858 
L 400.378202 304.608328 
L 397.151729 303.577778 
L 395.209636 302.976161 
L 390.041071 301.467143 
L 385.193154 300.040404 
L 384.872505 299.948677 
L 379.703939 298.377871 
L 374.535374 296.774657 
L 373.662618 296.50303 
L 369.366808 295.198599 
L 364.198242 293.602666 
L 362.151548 292.965657 
L 359.029677 292.017667 
L 353.861111 290.429001 
L 350.645734 289.428283 
L 348.692545 288.835169 
L 343.52398 287.253632 
L 339.145371 285.890909 
L 338.355414 285.651031 
L 333.186848 284.024041 
L 328.369539 282.353535 
L 328.018283 282.235506 
L 322.849717 280.540372 
L 317.701973 278.816162 
L 317.681152 278.809352 
L 312.512586 277.259308 
L 307.34402 275.703447 
L 305.937495 275.278788 
L 302.175455 274.17408 
L 297.006889 272.666961 
L 293.866193 271.741414 
L 291.838323 271.164995 
L 286.669758 269.735636 
L 281.501192 268.27101 
L 281.261957 268.20404 
L 276.332626 266.91584 
L 271.164061 265.704038 
L 266.7127 264.666667 
L 265.995495 264.495494 
L 260.826929 263.066927 
L 255.658364 261.305181 
L 255.151235 261.129293 
L 250.489798 259.520749 
L 245.526996 257.591919 
L 245.321232 257.51206 
L 240.152667 255.504337 
L 236.477767 254.054545 
L 234.984101 253.474846 
L 229.815535 251.456091 
L 227.435618 250.517172 
L 224.64697 249.434906 
L 219.478404 247.405057 
L 218.427818 246.979798 
L 214.309838 245.32774 
L 209.695799 243.442424 
L 209.141273 243.230321 
L 203.972707 241.275886 
L 200.329068 239.905051 
L 198.804141 239.342503 
L 193.635576 237.429463 
L 190.728797 236.367677 
L 188.46701 235.541485 
L 183.298444 233.625967 
L 181.175052 232.830303 
L 178.129879 231.709269 
L 172.961313 229.782722 
L 171.654242 229.292929 
L 167.792747 227.871394 
L 162.624182 225.938465 
L 162.132887 225.755556 
L 157.455616 223.883622 
L 153.295258 222.218182 
L 152.287051 221.809767 
L 147.118485 219.695153 
L 144.894718 218.680808 
L 141.949919 217.286393 
L 137.477503 215.143434 
L 136.781354 214.813162 
L 131.612788 212.351387 
L 130.103971 211.606061 
L 126.444222 209.77559 
L 123.178159 208.068687 
L 121.275657 207.08123 
L 116.567178 204.531313 
L 116.107091 204.266324 
L 110.938525 201.065442 
L 110.823667 200.993939 
L 105.76996 197.839453 
L 105.146412 197.456566 
L 100.601394 194.743076 
L 99.213547 193.919192 
L 95.432828 191.840558 
L 92.805154 190.381818 
L 90.264263 188.958243 
L 86.568956 186.844444 
L 85.095697 185.908859 
L 81.136533 183.307071 
L 79.927131 182.505612 
L 75.840463 179.769697 
L 74.758566 179.052515 
L 70.545329 176.232323 
L 69.59 175.597895 
L 69.59 176.232323 
L 69.59 179.769697 
L 69.59 183.307071 
L 69.59 186.844444 
L 69.59 190.381818 
L 69.59 193.919192 
L 69.59 197.456566 
L 69.59 200.993939 
L 69.59 204.531313 
L 69.59 208.068687 
L 69.59 211.606061 
L 69.59 215.143434 
L 69.59 218.680808 
L 69.59 222.218182 
L 69.59 225.755556 
L 69.59 229.292929 
L 69.59 232.830303 
L 69.59 236.367677 
L 69.59 239.905051 
L 69.59 243.442424 
L 69.59 246.979798 
L 69.59 250.517172 
L 69.59 254.054545 
L 69.59 257.591919 
L 69.59 261.129293 
L 69.59 264.666667 
L 69.59 268.20404 
L 69.59 271.741414 
L 69.59 275.278788 
L 69.59 278.816162 
L 69.59 282.353535 
L 69.59 285.890909 
L 69.59 289.428283 
L 69.59 292.965657 
L 69.59 296.50303 
L 69.59 300.040404 
L 69.59 303.577778 
L 69.59 307.115152 
L 69.59 310.652525 
L 69.59 314.189899 
L 69.59 317.727273 
L 69.59 321.264646 
L 69.59 324.80202 
L 69.59 328.339394 
L 69.59 331.876768 
L 69.59 335.414141 
L 69.59 338.951515 
L 69.59 342.488889 
L 69.59 346.026263 
L 69.59 349.563636 
L 69.59 353.10101 
L 69.59 356.638384 
L 69.59 360.175758 
L 69.59 363.713131 
L 69.59 367.250505 
L 69.59 370.787879 
L 69.59 374.325253 
L 69.59 377.862626 
L 69.59 381.4 
z
" clip-path="url(#pfc80e62ba5)" style="fill: #48186a"/>
    <path d="M 581.278 372.615811 
L 581.278 370.787879 
L 581.278 367.250505 
L 581.278 363.713131 
L 581.278 360.175758 
L 581.278 356.638384 
L 581.278 353.10101 
L 581.278 349.563636 
L 581.278 346.026263 
L 581.278 342.488889 
L 581.278 338.951515 
L 581.278 335.414141 
L 581.278 331.876768 
L 581.278 328.339394 
L 581.278 324.80202 
L 581.278 321.264646 
L 581.278 317.727273 
L 581.278 314.189899 
L 581.278 310.652525 
L 581.278 309.817997 
L 576.109434 307.930148 
L 573.887015 307.115152 
L 570.940869 306.049585 
L 565.772303 304.331616 
L 563.52597 303.577778 
L 560.603737 302.613447 
L 555.435172 300.89337 
L 552.832067 300.040404 
L 550.266606 299.207636 
L 545.09804 297.548051 
L 541.876126 296.50303 
L 539.929475 295.883048 
L 534.760909 294.22686 
L 530.935027 292.965657 
L 529.592343 292.534323 
L 524.423778 290.799898 
L 520.419892 289.428283 
L 519.255212 289.036383 
L 514.086646 287.290355 
L 510.001518 285.890909 
L 508.918081 285.526357 
L 503.749515 283.781181 
L 499.581129 282.353535 
L 498.580949 282.017652 
L 493.412384 280.285622 
L 489.088577 278.816162 
L 488.243818 278.533151 
L 483.075253 276.796664 
L 478.62537 275.278788 
L 477.906687 275.038437 
L 472.738121 273.360179 
L 467.734222 271.741414 
L 467.569556 271.689141 
L 462.40099 270.047876 
L 457.232424 268.379121 
L 456.690992 268.20404 
L 452.063859 266.737758 
L 446.895293 265.106125 
L 445.551941 264.666667 
L 441.726727 263.441242 
L 436.558162 261.809508 
L 434.338589 261.129293 
L 431.389596 260.244268 
L 426.22103 258.660806 
L 422.551807 257.591919 
L 421.052465 257.172488 
L 415.883899 255.680817 
L 410.715333 254.154199 
L 410.378335 254.054545 
L 405.546768 252.658105 
L 400.378202 251.140342 
L 398.27078 250.517172 
L 395.209636 249.632411 
L 390.041071 248.12344 
L 386.173491 246.979798 
L 384.872505 246.603765 
L 379.703939 245.103512 
L 374.535374 243.577479 
L 374.078651 243.442424 
L 369.366808 242.088242 
L 364.198242 240.624037 
L 361.772922 239.905051 
L 359.029677 239.11679 
L 353.861111 237.574118 
L 349.873986 236.367677 
L 348.692545 236.018242 
L 343.52398 234.483374 
L 338.355414 232.921057 
L 338.061211 232.830303 
L 333.186848 231.223334 
L 328.018283 229.339465 
L 327.892047 229.292929 
L 322.849717 227.369953 
L 318.489774 225.755556 
L 317.681152 225.46589 
L 312.512586 223.691469 
L 308.008066 222.218182 
L 307.34402 222.005004 
L 302.175455 220.354178 
L 297.020921 218.680808 
L 297.006889 218.676338 
L 291.838323 216.912842 
L 286.962839 215.143434 
L 286.669758 215.036869 
L 281.501192 212.982181 
L 278.140988 211.606061 
L 276.332626 210.875944 
L 271.164061 208.773801 
L 269.442349 208.068687 
L 265.995495 206.677048 
L 260.826929 204.560956 
L 260.754551 204.531313 
L 255.658364 202.473787 
L 252.044862 200.993939 
L 250.489798 200.366082 
L 245.321232 198.241577 
L 243.466608 197.456566 
L 240.152667 196.072639 
L 235.065152 193.919192 
L 234.984101 193.885342 
L 229.815535 191.726189 
L 226.675251 190.381818 
L 224.64697 189.493002 
L 219.478404 187.107559 
L 218.919958 186.844444 
L 214.309838 184.6929 
L 211.333663 183.307071 
L 209.141273 182.319357 
L 203.972707 179.924024 
L 203.661614 179.769697 
L 198.804141 177.19622 
L 197.017319 176.232323 
L 193.635576 174.35311 
L 190.668256 172.694949 
L 188.46701 171.471709 
L 184.325855 169.157576 
L 183.298444 168.586638 
L 178.129879 165.700328 
L 177.986495 165.620202 
L 172.961313 162.81816 
L 171.681218 162.082828 
L 167.792747 159.746574 
L 165.800441 158.545455 
L 162.624182 156.611736 
L 160.088548 155.008081 
L 157.455616 153.339094 
L 154.514166 151.470707 
L 152.287051 150.058938 
L 148.940631 147.933333 
L 147.118485 146.778295 
L 143.36791 144.39596 
L 141.949919 143.497097 
L 137.79597 140.858586 
L 136.781354 140.215432 
L 132.217687 137.321212 
L 131.612788 136.941763 
L 126.751386 133.783838 
L 126.444222 133.582367 
L 121.428473 130.246465 
L 121.275657 130.145146 
L 116.107091 126.719037 
L 116.092088 126.709091 
L 110.938525 123.295685 
L 110.751524 123.171717 
L 105.76996 119.872344 
L 105.410949 119.634343 
L 100.601394 116.448806 
L 100.070651 116.09697 
L 95.432828 113.0252 
L 94.730493 112.559596 
L 90.264263 109.601468 
L 89.390483 109.022222 
L 85.095697 106.177613 
L 84.050678 105.484848 
L 79.927131 102.753698 
L 78.710994 101.947475 
L 74.758566 99.329646 
L 73.37146 98.410101 
L 69.59 95.905505 
L 69.59 98.410101 
L 69.59 101.947475 
L 69.59 105.484848 
L 69.59 109.022222 
L 69.59 112.559596 
L 69.59 116.09697 
L 69.59 119.634343 
L 69.59 123.171717 
L 69.59 126.709091 
L 69.59 130.246465 
L 69.59 133.783838 
L 69.59 137.321212 
L 69.59 140.858586 
L 69.59 144.39596 
L 69.59 147.933333 
L 69.59 151.470707 
L 69.59 155.008081 
L 69.59 158.545455 
L 69.59 162.082828 
L 69.59 165.620202 
L 69.59 169.157576 
L 69.59 172.694949 
L 69.59 175.597895 
L 70.545329 176.232323 
L 74.758566 179.052515 
L 75.840463 179.769697 
L 79.927131 182.505612 
L 81.136533 183.307071 
L 85.095697 185.908859 
L 86.568956 186.844444 
L 90.264263 188.958243 
L 92.805154 190.381818 
L 95.432828 191.840558 
L 99.213547 193.919192 
L 100.601394 194.743076 
L 105.146412 197.456566 
L 105.76996 197.839453 
L 110.823667 200.993939 
L 110.938525 201.065442 
L 116.107091 204.266324 
L 116.567178 204.531313 
L 121.275657 207.08123 
L 123.178159 208.068687 
L 126.444222 209.77559 
L 130.103971 211.606061 
L 131.612788 212.351387 
L 136.781354 214.813162 
L 137.477503 215.143434 
L 141.949919 217.286393 
L 144.894718 218.680808 
L 147.118485 219.695153 
L 152.287051 221.809767 
L 153.295258 222.218182 
L 157.455616 223.883622 
L 162.132887 225.755556 
L 162.624182 225.938465 
L 167.792747 227.871394 
L 171.654242 229.292929 
L 172.961313 229.782722 
L 178.129879 231.709269 
L 181.175052 232.830303 
L 183.298444 233.625967 
L 188.46701 235.541485 
L 190.728797 236.367677 
L 193.635576 237.429463 
L 198.804141 239.342503 
L 200.329068 239.905051 
L 203.972707 241.275886 
L 209.141273 243.230321 
L 209.695799 243.442424 
L 214.309838 245.32774 
L 218.427818 246.979798 
L 219.478404 247.405057 
L 224.64697 249.434906 
L 227.435618 250.517172 
L 229.815535 251.456091 
L 234.984101 253.474846 
L 236.477767 254.054545 
L 240.152667 255.504337 
L 245.321232 257.51206 
L 245.526996 257.591919 
L 250.489798 259.520749 
L 255.151235 261.129293 
L 255.658364 261.305181 
L 260.826929 263.066927 
L 265.995495 264.495494 
L 266.7127 264.666667 
L 271.164061 265.704038 
L 276.332626 266.91584 
L 281.261957 268.20404 
L 281.501192 268.27101 
L 286.669758 269.735636 
L 291.838323 271.164995 
L 293.866193 271.741414 
L 297.006889 272.666961 
L 302.175455 274.17408 
L 305.937495 275.278788 
L 307.34402 275.703447 
L 312.512586 277.259308 
L 317.681152 278.809352 
L 317.701973 278.816162 
L 322.849717 280.540372 
L 328.018283 282.235506 
L 328.369539 282.353535 
L 333.186848 284.024041 
L 338.355414 285.651031 
L 339.145371 285.890909 
L 343.52398 287.253632 
L 348.692545 288.835169 
L 350.645734 289.428283 
L 353.861111 290.429001 
L 359.029677 292.017667 
L 362.151548 292.965657 
L 364.198242 293.602666 
L 369.366808 295.198599 
L 373.662618 296.50303 
L 374.535374 296.774657 
L 379.703939 298.377871 
L 384.872505 299.948677 
L 385.193154 300.040404 
L 390.041071 301.467143 
L 395.209636 302.976161 
L 397.151729 303.577778 
L 400.378202 304.608328 
L 405.546768 306.23858 
L 408.356535 307.115152 
L 410.715333 307.868563 
L 415.883899 309.504374 
L 419.577666 310.652525 
L 421.052465 311.120655 
L 426.22103 312.759502 
L 430.800296 314.189899 
L 431.389596 314.379408 
L 436.558162 316.113546 
L 441.249311 317.727273 
L 441.726727 317.895111 
L 446.895293 319.751461 
L 451.177563 321.264646 
L 452.063859 321.584389 
L 457.232424 323.44779 
L 461.052151 324.80202 
L 462.40099 325.29039 
L 467.569556 327.157118 
L 470.886626 328.339394 
L 472.738121 329.013135 
L 477.906687 330.87853 
L 480.707414 331.876768 
L 483.075253 332.738393 
L 488.243818 334.599513 
L 490.529365 335.414141 
L 493.412384 336.463229 
L 498.580949 338.320101 
L 500.352472 338.951515 
L 503.749515 340.187645 
L 508.918081 342.086417 
L 510.010777 342.488889 
L 514.086646 344.020566 
L 519.255212 345.926625 
L 519.525729 346.026263 
L 524.423778 347.897815 
L 528.727112 349.563636 
L 529.592343 349.913622 
L 534.760909 352.017318 
L 537.420762 353.10101 
L 539.929475 354.153792 
L 545.09804 356.296655 
L 545.925614 356.638384 
L 550.266606 358.460042 
L 554.421657 360.175758 
L 555.435172 360.601084 
L 560.603737 362.759469 
L 562.913314 363.713131 
L 565.772303 364.933184 
L 570.555474 367.250505 
L 570.940869 367.440095 
L 576.109434 369.984227 
L 577.694608 370.787879 
z
" clip-path="url(#pfc80e62ba5)" style="fill: #424086"/>
    <path d="M 576.109434 307.930148 
L 581.278 309.817997 
L 581.278 307.115152 
L 581.278 303.577778 
L 581.278 300.040404 
L 581.278 296.50303 
L 581.278 292.965657 
L 581.278 289.428283 
L 581.278 285.890909 
L 581.278 282.353535 
L 581.278 278.816162 
L 581.278 275.278788 
L 581.278 271.741414 
L 581.278 269.904904 
L 576.109434 268.345392 
L 575.674724 268.20404 
L 570.940869 266.695706 
L 565.772303 264.907269 
L 564.9561 264.666667 
L 560.603737 263.351088 
L 555.435172 261.762353 
L 553.299481 261.129293 
L 550.266606 260.196673 
L 545.09804 258.603524 
L 541.829592 257.591919 
L 539.929475 256.981073 
L 534.760909 255.387863 
L 530.509579 254.054545 
L 529.592343 253.759802 
L 524.423778 252.166592 
L 519.255212 250.586985 
L 519.027184 250.517172 
L 514.086646 249.022061 
L 508.918081 247.446927 
L 507.408726 246.979798 
L 503.749515 245.869256 
L 498.580949 244.320485 
L 495.663704 243.442424 
L 493.412384 242.775749 
L 488.243818 241.224525 
L 483.870974 239.905051 
L 483.075253 239.667833 
L 477.906687 238.093579 
L 472.738121 236.489997 
L 472.352198 236.367677 
L 467.569556 234.890036 
L 462.40099 233.213998 
L 461.239492 232.830303 
L 457.232424 231.454865 
L 452.063859 229.777129 
L 450.564609 229.292929 
L 446.895293 228.077386 
L 441.726727 226.538073 
L 439.023026 225.755556 
L 436.558162 225.053274 
L 431.389596 223.625465 
L 426.364145 222.218182 
L 426.22103 222.178782 
L 421.052465 220.755476 
L 415.883899 219.315533 
L 413.617293 218.680808 
L 410.715333 217.882398 
L 405.546768 216.480879 
L 400.541048 215.143434 
L 400.378202 215.102889 
L 395.209636 213.847311 
L 390.041071 212.611315 
L 385.873921 211.606061 
L 384.872505 211.355971 
L 379.703939 209.838082 
L 374.792847 208.068687 
L 374.535374 207.972523 
L 369.366808 206.168647 
L 364.198242 204.555568 
L 364.120222 204.531313 
L 359.029677 202.97269 
L 353.861111 201.346894 
L 352.802848 200.993939 
L 348.692545 199.643716 
L 343.52398 197.865152 
L 342.385416 197.456566 
L 338.355414 196.034008 
L 333.186848 194.198056 
L 332.419528 193.919192 
L 328.018283 192.343077 
L 322.849717 190.466157 
L 322.617653 190.381818 
L 317.681152 188.614038 
L 312.75295 186.844444 
L 312.512586 186.759273 
L 307.34402 185.010568 
L 302.779881 183.307071 
L 302.175455 183.084561 
L 297.006889 181.17826 
L 293.233021 179.769697 
L 291.838323 179.255575 
L 286.669758 177.323487 
L 283.81043 176.232323 
L 281.501192 175.363753 
L 276.332626 173.405264 
L 274.469244 172.694949 
L 271.164061 171.402283 
L 265.995495 169.326072 
L 265.622949 169.157576 
L 260.826929 166.964984 
L 257.973458 165.620202 
L 255.658364 164.526541 
L 250.540973 162.082828 
L 250.489798 162.058294 
L 245.321232 159.509915 
L 243.379958 158.545455 
L 240.152667 156.94012 
L 236.549977 155.008081 
L 234.984101 154.135485 
L 230.225472 151.470707 
L 229.815535 151.242262 
L 224.64697 148.339965 
L 223.941765 147.933333 
L 219.478404 145.247467 
L 218.067664 144.39596 
L 214.309838 142.134626 
L 212.195758 140.858586 
L 209.141273 139.016795 
L 206.346683 137.321212 
L 203.972707 135.880439 
L 200.527812 133.783838 
L 198.804141 132.737743 
L 194.710821 130.246465 
L 193.635576 129.593889 
L 188.895622 126.709091 
L 188.46701 126.448964 
L 183.298444 123.292366 
L 183.10709 123.171717 
L 178.129879 120.014312 
L 177.531984 119.634343 
L 172.961313 116.734841 
L 171.957607 116.09697 
L 167.792747 113.45493 
L 166.38391 112.559596 
L 162.624182 110.174534 
L 160.81098 109.022222 
L 157.455616 106.893699 
L 155.238727 105.484848 
L 152.287051 103.612417 
L 149.66721 101.947475 
L 147.118485 100.330621 
L 144.001066 98.410101 
L 141.949919 97.160556 
L 138.260252 94.872727 
L 136.781354 93.949786 
L 132.804856 91.335354 
L 131.612788 90.552379 
L 127.462681 87.79798 
L 126.444222 87.122662 
L 122.126817 84.260606 
L 121.275657 83.696819 
L 116.789868 80.723232 
L 116.107091 80.244839 
L 111.483884 77.185859 
L 110.938525 76.802381 
L 106.277219 73.648485 
L 105.76996 73.291424 
L 101.249227 70.111111 
L 100.601394 69.66074 
L 95.986036 66.573737 
L 95.432828 66.223775 
L 90.402952 63.036364 
L 90.264263 62.948626 
L 85.095697 59.677114 
L 84.814611 59.49899 
L 79.927131 56.407093 
L 79.224143 55.961616 
L 74.758566 53.136647 
L 73.634357 52.424242 
L 69.59 49.865807 
L 69.59 52.424242 
L 69.59 55.961616 
L 69.59 59.49899 
L 69.59 63.036364 
L 69.59 66.573737 
L 69.59 70.111111 
L 69.59 73.648485 
L 69.59 77.185859 
L 69.59 80.723232 
L 69.59 84.260606 
L 69.59 87.79798 
L 69.59 91.335354 
L 69.59 94.872727 
L 69.59 95.905505 
L 73.37146 98.410101 
L 74.758566 99.329646 
L 78.710994 101.947475 
L 79.927131 102.753698 
L 84.050678 105.484848 
L 85.095697 106.177613 
L 89.390483 109.022222 
L 90.264263 109.601468 
L 94.730493 112.559596 
L 95.432828 113.0252 
L 100.070651 116.09697 
L 100.601394 116.448806 
L 105.410949 119.634343 
L 105.76996 119.872344 
L 110.751524 123.171717 
L 110.938525 123.295685 
L 116.092088 126.709091 
L 116.107091 126.719037 
L 121.275657 130.145146 
L 121.428473 130.246465 
L 126.444222 133.582367 
L 126.751386 133.783838 
L 131.612788 136.941763 
L 132.217687 137.321212 
L 136.781354 140.215432 
L 137.79597 140.858586 
L 141.949919 143.497097 
L 143.36791 144.39596 
L 147.118485 146.778295 
L 148.940631 147.933333 
L 152.287051 150.058938 
L 154.514166 151.470707 
L 157.455616 153.339094 
L 160.088548 155.008081 
L 162.624182 156.611736 
L 165.800441 158.545455 
L 167.792747 159.746574 
L 171.681218 162.082828 
L 172.961313 162.81816 
L 177.986495 165.620202 
L 178.129879 165.700328 
L 183.298444 168.586638 
L 184.325855 169.157576 
L 188.46701 171.471709 
L 190.668256 172.694949 
L 193.635576 174.35311 
L 197.017319 176.232323 
L 198.804141 177.19622 
L 203.661614 179.769697 
L 203.972707 179.924024 
L 209.141273 182.319357 
L 211.333663 183.307071 
L 214.309838 184.6929 
L 218.919958 186.844444 
L 219.478404 187.107559 
L 224.64697 189.493002 
L 226.675251 190.381818 
L 229.815535 191.726189 
L 234.984101 193.885342 
L 235.065152 193.919192 
L 240.152667 196.072639 
L 243.466608 197.456566 
L 245.321232 198.241577 
L 250.489798 200.366082 
L 252.044862 200.993939 
L 255.658364 202.473787 
L 260.754551 204.531313 
L 260.826929 204.560956 
L 265.995495 206.677048 
L 269.442349 208.068687 
L 271.164061 208.773801 
L 276.332626 210.875944 
L 278.140988 211.606061 
L 281.501192 212.982181 
L 286.669758 215.036869 
L 286.962839 215.143434 
L 291.838323 216.912842 
L 297.006889 218.676338 
L 297.020921 218.680808 
L 302.175455 220.354178 
L 307.34402 222.005004 
L 308.008066 222.218182 
L 312.512586 223.691469 
L 317.681152 225.46589 
L 318.489774 225.755556 
L 322.849717 227.369953 
L 327.892047 229.292929 
L 328.018283 229.339465 
L 333.186848 231.223334 
L 338.061211 232.830303 
L 338.355414 232.921057 
L 343.52398 234.483374 
L 348.692545 236.018242 
L 349.873986 236.367677 
L 353.861111 237.574118 
L 359.029677 239.11679 
L 361.772922 239.905051 
L 364.198242 240.624037 
L 369.366808 242.088242 
L 374.078651 243.442424 
L 374.535374 243.577479 
L 379.703939 245.103512 
L 384.872505 246.603765 
L 386.173491 246.979798 
L 390.041071 248.12344 
L 395.209636 249.632411 
L 398.27078 250.517172 
L 400.378202 251.140342 
L 405.546768 252.658105 
L 410.378335 254.054545 
L 410.715333 254.154199 
L 415.883899 255.680817 
L 421.052465 257.172488 
L 422.551807 257.591919 
L 426.22103 258.660806 
L 431.389596 260.244268 
L 434.338589 261.129293 
L 436.558162 261.809508 
L 441.726727 263.441242 
L 445.551941 264.666667 
L 446.895293 265.106125 
L 452.063859 266.737758 
L 456.690992 268.20404 
L 457.232424 268.379121 
L 462.40099 270.047876 
L 467.569556 271.689141 
L 467.734222 271.741414 
L 472.738121 273.360179 
L 477.906687 275.038437 
L 478.62537 275.278788 
L 483.075253 276.796664 
L 488.243818 278.533151 
L 489.088577 278.816162 
L 493.412384 280.285622 
L 498.580949 282.017652 
L 499.581129 282.353535 
L 503.749515 283.781181 
L 508.918081 285.526357 
L 510.001518 285.890909 
L 514.086646 287.290355 
L 519.255212 289.036383 
L 520.419892 289.428283 
L 524.423778 290.799898 
L 529.592343 292.534323 
L 530.935027 292.965657 
L 534.760909 294.22686 
L 539.929475 295.883048 
L 541.876126 296.50303 
L 545.09804 297.548051 
L 550.266606 299.207636 
L 552.832067 300.040404 
L 555.435172 300.89337 
L 560.603737 302.613447 
L 563.52597 303.577778 
L 565.772303 304.331616 
L 570.940869 306.049585 
L 573.887015 307.115152 
z
" clip-path="url(#pfc80e62ba5)" style="fill: #33638d"/>
    <path d="M 576.109434 268.345392 
L 581.278 269.904904 
L 581.278 268.20404 
L 581.278 264.666667 
L 581.278 261.129293 
L 581.278 257.591919 
L 581.278 254.054545 
L 581.278 250.517172 
L 581.278 246.979798 
L 581.278 243.442424 
L 581.278 239.905051 
L 581.278 236.367677 
L 581.278 232.830303 
L 581.278 231.902869 
L 576.109434 230.296558 
L 572.894753 229.292929 
L 570.940869 228.688235 
L 565.772303 227.084222 
L 561.42901 225.755556 
L 560.603737 225.503498 
L 555.435172 224.198159 
L 550.266606 222.846062 
L 548.264817 222.218182 
L 545.09804 221.233769 
L 539.929475 219.619729 
L 536.936105 218.680808 
L 534.760909 218.007749 
L 529.592343 216.429438 
L 525.400745 215.143434 
L 524.423778 214.846432 
L 519.255212 213.273033 
L 514.086646 211.685946 
L 513.826951 211.606061 
L 508.918081 210.109392 
L 503.749515 208.522396 
L 502.275024 208.068687 
L 498.580949 206.942392 
L 493.412384 205.375177 
L 490.519481 204.531313 
L 488.243818 203.916513 
L 483.075253 202.524931 
L 477.906687 201.070378 
L 477.629754 200.993939 
L 472.738121 199.659454 
L 467.569556 198.278122 
L 464.003711 197.456566 
L 462.40099 197.09874 
L 457.232424 195.964877 
L 452.063859 194.823543 
L 447.722239 193.919192 
L 446.895293 193.74988 
L 441.726727 192.707395 
L 436.558162 191.749511 
L 431.389596 190.860975 
L 428.967558 190.381818 
L 426.22103 189.747857 
L 421.052465 188.280678 
L 416.482906 186.844444 
L 415.883899 186.657837 
L 410.715333 184.953978 
L 405.630312 183.307071 
L 405.546768 183.282622 
L 400.378202 181.91257 
L 395.209636 180.52466 
L 392.399984 179.769697 
L 390.041071 179.139756 
L 384.872505 177.733665 
L 379.703939 176.30155 
L 379.457421 176.232323 
L 374.535374 174.859049 
L 369.366808 173.405983 
L 366.908826 172.694949 
L 364.198242 171.982498 
L 359.029677 170.649531 
L 353.861111 169.260314 
L 353.488092 169.157576 
L 348.692545 167.747953 
L 343.52398 166.255203 
L 341.356877 165.620202 
L 338.355414 164.684927 
L 333.186848 163.036509 
L 330.45814 162.082828 
L 328.018283 161.212679 
L 322.849717 159.050933 
L 321.644823 158.545455 
L 317.681152 156.894517 
L 313.184529 155.008081 
L 312.512586 154.728196 
L 307.34402 152.806857 
L 303.722311 151.470707 
L 302.175455 150.894922 
L 297.006889 148.947251 
L 294.330108 147.933333 
L 291.838323 146.997124 
L 286.669758 145.045833 
L 284.954085 144.39596 
L 281.501192 143.098639 
L 276.332626 141.06823 
L 275.806529 140.858586 
L 271.164061 139.012573 
L 267.225051 137.321212 
L 265.995495 136.709334 
L 260.826929 133.792467 
L 260.811856 133.783838 
L 255.658364 130.847256 
L 254.609217 130.246465 
L 250.489798 127.898205 
L 248.414022 126.709091 
L 245.321232 124.9401 
L 242.258874 123.171717 
L 240.152667 121.955913 
L 236.281898 119.634343 
L 234.984101 118.881035 
L 230.572179 116.09697 
L 229.815535 115.630614 
L 224.957912 112.559596 
L 224.64697 112.363627 
L 219.478404 109.092613 
L 219.367951 109.022222 
L 214.309838 105.812668 
L 213.795554 105.484848 
L 209.141273 102.530807 
L 208.226349 101.947475 
L 203.972707 99.247094 
L 202.664165 98.410101 
L 198.804141 95.914994 
L 197.250769 94.872727 
L 193.635576 92.455405 
L 191.966353 91.335354 
L 188.46701 88.995322 
L 186.68274 87.79798 
L 183.298444 85.534735 
L 181.399821 84.260606 
L 178.129879 82.073689 
L 176.117679 80.723232 
L 172.961313 78.612073 
L 170.836355 77.185859 
L 167.792747 75.15001 
L 165.555681 73.648485 
L 162.624182 71.687496 
L 160.275741 70.111111 
L 157.455616 68.235355 
L 154.861326 66.573737 
L 152.287051 64.939115 
L 149.303879 63.036364 
L 147.118485 61.64835 
L 143.909421 59.49899 
L 141.949919 58.177411 
L 138.771819 55.961616 
L 136.781354 54.599851 
L 133.482426 52.424242 
L 131.612788 51.254119 
L 127.876706 48.886869 
L 126.444222 47.980553 
L 122.291753 45.349495 
L 121.275657 44.706625 
L 116.707393 41.812121 
L 116.107091 41.43231 
L 111.12363 38.274747 
L 110.938525 38.157633 
L 105.76996 34.885407 
L 105.536329 34.737374 
L 100.601394 31.615147 
L 99.946192 31.2 
L 95.432828 31.2 
L 90.264263 31.2 
L 85.095697 31.2 
L 79.927131 31.2 
L 74.758566 31.2 
L 69.59 31.2 
L 69.59 34.737374 
L 69.59 38.274747 
L 69.59 41.812121 
L 69.59 45.349495 
L 69.59 48.886869 
L 69.59 49.865807 
L 73.634357 52.424242 
L 74.758566 53.136647 
L 79.224143 55.961616 
L 79.927131 56.407093 
L 84.814611 59.49899 
L 85.095697 59.677114 
L 90.264263 62.948626 
L 90.402952 63.036364 
L 95.432828 66.223775 
L 95.986036 66.573737 
L 100.601394 69.66074 
L 101.249227 70.111111 
L 105.76996 73.291424 
L 106.277219 73.648485 
L 110.938525 76.802381 
L 111.483884 77.185859 
L 116.107091 80.244839 
L 116.789868 80.723232 
L 121.275657 83.696819 
L 122.126817 84.260606 
L 126.444222 87.122662 
L 127.462681 87.79798 
L 131.612788 90.552379 
L 132.804856 91.335354 
L 136.781354 93.949786 
L 138.260252 94.872727 
L 141.949919 97.160556 
L 144.001066 98.410101 
L 147.118485 100.330621 
L 149.66721 101.947475 
L 152.287051 103.612417 
L 155.238727 105.484848 
L 157.455616 106.893699 
L 160.81098 109.022222 
L 162.624182 110.174534 
L 166.38391 112.559596 
L 167.792747 113.45493 
L 171.957607 116.09697 
L 172.961313 116.734841 
L 177.531984 119.634343 
L 178.129879 120.014312 
L 183.10709 123.171717 
L 183.298444 123.292366 
L 188.46701 126.448964 
L 188.895622 126.709091 
L 193.635576 129.593889 
L 194.710821 130.246465 
L 198.804141 132.737743 
L 200.527812 133.783838 
L 203.972707 135.880439 
L 206.346683 137.321212 
L 209.141273 139.016795 
L 212.195758 140.858586 
L 214.309838 142.134626 
L 218.067664 144.39596 
L 219.478404 145.247467 
L 223.941765 147.933333 
L 224.64697 148.339965 
L 229.815535 151.242262 
L 230.225472 151.470707 
L 234.984101 154.135485 
L 236.549977 155.008081 
L 240.152667 156.94012 
L 243.379958 158.545455 
L 245.321232 159.509915 
L 250.489798 162.058294 
L 250.540973 162.082828 
L 255.658364 164.526541 
L 257.973458 165.620202 
L 260.826929 166.964984 
L 265.622949 169.157576 
L 265.995495 169.326072 
L 271.164061 171.402283 
L 274.469244 172.694949 
L 276.332626 173.405264 
L 281.501192 175.363753 
L 283.81043 176.232323 
L 286.669758 177.323487 
L 291.838323 179.255575 
L 293.233021 179.769697 
L 297.006889 181.17826 
L 302.175455 183.084561 
L 302.779881 183.307071 
L 307.34402 185.010568 
L 312.512586 186.759273 
L 312.75295 186.844444 
L 317.681152 188.614038 
L 322.617653 190.381818 
L 322.849717 190.466157 
L 328.018283 192.343077 
L 332.419528 193.919192 
L 333.186848 194.198056 
L 338.355414 196.034008 
L 342.385416 197.456566 
L 343.52398 197.865152 
L 348.692545 199.643716 
L 352.802848 200.993939 
L 353.861111 201.346894 
L 359.029677 202.97269 
L 364.120222 204.531313 
L 364.198242 204.555568 
L 369.366808 206.168647 
L 374.535374 207.972523 
L 374.792847 208.068687 
L 379.703939 209.838082 
L 384.872505 211.355971 
L 385.873921 211.606061 
L 390.041071 212.611315 
L 395.209636 213.847311 
L 400.378202 215.102889 
L 400.541048 215.143434 
L 405.546768 216.480879 
L 410.715333 217.882398 
L 413.617293 218.680808 
L 415.883899 219.315533 
L 421.052465 220.755476 
L 426.22103 222.178782 
L 426.364145 222.218182 
L 431.389596 223.625465 
L 436.558162 225.053274 
L 439.023026 225.755556 
L 441.726727 226.538073 
L 446.895293 228.077386 
L 450.564609 229.292929 
L 452.063859 229.777129 
L 457.232424 231.454865 
L 461.239492 232.830303 
L 462.40099 233.213998 
L 467.569556 234.890036 
L 472.352198 236.367677 
L 472.738121 236.489997 
L 477.906687 238.093579 
L 483.075253 239.667833 
L 483.870974 239.905051 
L 488.243818 241.224525 
L 493.412384 242.775749 
L 495.663704 243.442424 
L 498.580949 244.320485 
L 503.749515 245.869256 
L 507.408726 246.979798 
L 508.918081 247.446927 
L 514.086646 249.022061 
L 519.027184 250.517172 
L 519.255212 250.586985 
L 524.423778 252.166592 
L 529.592343 253.759802 
L 530.509579 254.054545 
L 534.760909 255.387863 
L 539.929475 256.981073 
L 541.829592 257.591919 
L 545.09804 258.603524 
L 550.266606 260.196673 
L 553.299481 261.129293 
L 555.435172 261.762353 
L 560.603737 263.351088 
L 564.9561 264.666667 
L 565.772303 264.907269 
L 570.940869 266.695706 
L 575.674724 268.20404 
z
" clip-path="url(#pfc80e62ba5)" style="fill: #26818e"/>
    <path d="M 576.109434 230.296558 
L 581.278 231.902869 
L 581.278 229.292929 
L 581.278 225.755556 
L 581.278 222.218182 
L 581.278 218.680808 
L 581.278 215.143434 
L 581.278 211.606061 
L 581.278 208.068687 
L 581.278 204.531313 
L 581.278 200.993939 
L 581.278 197.456566 
L 581.278 193.919192 
L 581.278 192.378021 
L 576.109434 191.127707 
L 572.860532 190.381818 
L 570.940869 189.962231 
L 565.772303 188.833753 
L 560.603737 187.72119 
L 556.235664 186.844444 
L 555.435172 186.683104 
L 550.266606 185.685914 
L 545.09804 184.624852 
L 539.929475 183.569592 
L 538.696272 183.307071 
L 534.760909 182.468688 
L 529.592343 181.352223 
L 524.423778 179.992297 
L 523.591641 179.769697 
L 519.255212 178.620436 
L 514.086646 177.24394 
L 510.304808 176.232323 
L 508.918081 175.864805 
L 503.749515 174.492913 
L 498.580949 173.112875 
L 497.018573 172.694949 
L 493.412384 171.739237 
L 488.243818 170.363924 
L 483.075253 169.184481 
L 482.962998 169.157576 
L 477.906687 167.841047 
L 472.738121 166.117787 
L 471.380943 165.620202 
L 467.569556 164.214031 
L 462.40099 162.369826 
L 461.583723 162.082828 
L 457.232424 160.629232 
L 452.063859 159.055016 
L 450.271324 158.545455 
L 446.895293 157.608784 
L 441.726727 156.389147 
L 436.558162 155.14961 
L 435.96299 155.008081 
L 431.389596 153.839449 
L 426.22103 152.513571 
L 422.115121 151.470707 
L 421.052465 151.201451 
L 415.883899 150.012871 
L 410.715333 148.821797 
L 406.871547 147.933333 
L 405.546768 147.629487 
L 400.378202 146.442911 
L 395.209636 145.251718 
L 391.507199 144.39596 
L 390.041071 144.059703 
L 384.872505 142.872976 
L 379.703939 141.681665 
L 376.142966 140.858586 
L 374.535374 140.489877 
L 369.366808 139.212449 
L 364.198242 137.959806 
L 361.860728 137.321212 
L 359.029677 136.558071 
L 353.861111 135.054725 
L 349.969994 133.783838 
L 348.692545 133.34437 
L 343.52398 131.367813 
L 340.604411 130.246465 
L 338.355414 129.387802 
L 333.186848 127.408041 
L 331.367057 126.709091 
L 328.018283 125.430543 
L 322.849717 123.447602 
L 322.131324 123.171717 
L 317.681152 121.344899 
L 313.947209 119.634343 
L 312.512586 118.989294 
L 307.34402 116.759444 
L 305.706041 116.09697 
L 302.175455 114.650077 
L 297.732518 112.559596 
L 297.006889 112.191574 
L 291.838323 109.36235 
L 291.235513 109.022222 
L 286.669758 106.432201 
L 285.012181 105.484848 
L 281.501192 103.480225 
L 278.821629 101.947475 
L 276.332626 100.526319 
L 272.633065 98.410101 
L 271.164061 97.571356 
L 266.446328 94.872727 
L 265.995495 94.615318 
L 260.826929 91.661812 
L 260.256226 91.335354 
L 255.658364 88.710156 
L 254.063708 87.79798 
L 250.489798 85.757414 
L 247.873115 84.260606 
L 245.321232 82.803553 
L 241.684412 80.723232 
L 240.152667 79.848668 
L 235.497535 77.185859 
L 234.984101 76.892706 
L 229.815535 73.938878 
L 229.307877 73.648485 
L 224.64697 70.987304 
L 223.115238 70.111111 
L 219.478404 68.034563 
L 217.039408 66.573737 
L 214.309838 64.908935 
L 211.265338 63.036364 
L 209.141273 61.731393 
L 205.511752 59.49899 
L 203.972707 58.55344 
L 199.758771 55.961616 
L 198.804141 55.375113 
L 194.347441 52.424242 
L 193.635576 51.965518 
L 189.071112 48.886869 
L 188.46701 48.407935 
L 184.051284 45.349495 
L 183.298444 44.738401 
L 179.688029 41.812121 
L 178.129879 40.547308 
L 175.235738 38.274747 
L 172.961313 36.690763 
L 169.982204 34.737374 
L 167.792747 33.316645 
L 164.380015 31.2 
L 162.624182 31.2 
L 157.455616 31.2 
L 152.287051 31.2 
L 147.118485 31.2 
L 141.949919 31.2 
L 136.781354 31.2 
L 131.612788 31.2 
L 126.444222 31.2 
L 121.275657 31.2 
L 116.107091 31.2 
L 110.938525 31.2 
L 105.76996 31.2 
L 100.601394 31.2 
L 99.946192 31.2 
L 100.601394 31.615147 
L 105.536329 34.737374 
L 105.76996 34.885407 
L 110.938525 38.157633 
L 111.12363 38.274747 
L 116.107091 41.43231 
L 116.707393 41.812121 
L 121.275657 44.706625 
L 122.291753 45.349495 
L 126.444222 47.980553 
L 127.876706 48.886869 
L 131.612788 51.254119 
L 133.482426 52.424242 
L 136.781354 54.599851 
L 138.771819 55.961616 
L 141.949919 58.177411 
L 143.909421 59.49899 
L 147.118485 61.64835 
L 149.303879 63.036364 
L 152.287051 64.939115 
L 154.861326 66.573737 
L 157.455616 68.235355 
L 160.275741 70.111111 
L 162.624182 71.687496 
L 165.555681 73.648485 
L 167.792747 75.15001 
L 170.836355 77.185859 
L 172.961313 78.612073 
L 176.117679 80.723232 
L 178.129879 82.073689 
L 181.399821 84.260606 
L 183.298444 85.534735 
L 186.68274 87.79798 
L 188.46701 88.995322 
L 191.966353 91.335354 
L 193.635576 92.455405 
L 197.250769 94.872727 
L 198.804141 95.914994 
L 202.664165 98.410101 
L 203.972707 99.247094 
L 208.226349 101.947475 
L 209.141273 102.530807 
L 213.795554 105.484848 
L 214.309838 105.812668 
L 219.367951 109.022222 
L 219.478404 109.092613 
L 224.64697 112.363627 
L 224.957912 112.559596 
L 229.815535 115.630614 
L 230.572179 116.09697 
L 234.984101 118.881035 
L 236.281898 119.634343 
L 240.152667 121.955913 
L 242.258874 123.171717 
L 245.321232 124.9401 
L 248.414022 126.709091 
L 250.489798 127.898205 
L 254.609217 130.246465 
L 255.658364 130.847256 
L 260.811856 133.783838 
L 260.826929 133.792467 
L 265.995495 136.709334 
L 267.225051 137.321212 
L 271.164061 139.012573 
L 275.806529 140.858586 
L 276.332626 141.06823 
L 281.501192 143.098639 
L 284.954085 144.39596 
L 286.669758 145.045833 
L 291.838323 146.997124 
L 294.330108 147.933333 
L 297.006889 148.947251 
L 302.175455 150.894922 
L 303.722311 151.470707 
L 307.34402 152.806857 
L 312.512586 154.728196 
L 313.184529 155.008081 
L 317.681152 156.894517 
L 321.644823 158.545455 
L 322.849717 159.050933 
L 328.018283 161.212679 
L 330.45814 162.082828 
L 333.186848 163.036509 
L 338.355414 164.684927 
L 341.356877 165.620202 
L 343.52398 166.255203 
L 348.692545 167.747953 
L 353.488092 169.157576 
L 353.861111 169.260314 
L 359.029677 170.649531 
L 364.198242 171.982498 
L 366.908826 172.694949 
L 369.366808 173.405983 
L 374.535374 174.859049 
L 379.457421 176.232323 
L 379.703939 176.30155 
L 384.872505 177.733665 
L 390.041071 179.139756 
L 392.399984 179.769697 
L 395.209636 180.52466 
L 400.378202 181.91257 
L 405.546768 183.282622 
L 405.630312 183.307071 
L 410.715333 184.953978 
L 415.883899 186.657837 
L 416.482906 186.844444 
L 421.052465 188.280678 
L 426.22103 189.747857 
L 428.967558 190.381818 
L 431.389596 190.860975 
L 436.558162 191.749511 
L 441.726727 192.707395 
L 446.895293 193.74988 
L 447.722239 193.919192 
L 452.063859 194.823543 
L 457.232424 195.964877 
L 462.40099 197.09874 
L 464.003711 197.456566 
L 467.569556 198.278122 
L 472.738121 199.659454 
L 477.629754 200.993939 
L 477.906687 201.070378 
L 483.075253 202.524931 
L 488.243818 203.916513 
L 490.519481 204.531313 
L 493.412384 205.375177 
L 498.580949 206.942392 
L 502.275024 208.068687 
L 503.749515 208.522396 
L 508.918081 210.109392 
L 513.826951 211.606061 
L 514.086646 211.685946 
L 519.255212 213.273033 
L 524.423778 214.846432 
L 525.400745 215.143434 
L 529.592343 216.429438 
L 534.760909 218.007749 
L 536.936105 218.680808 
L 539.929475 219.619729 
L 545.09804 221.233769 
L 548.264817 222.218182 
L 550.266606 222.846062 
L 555.435172 224.198159 
L 560.603737 225.503498 
L 561.42901 225.755556 
L 565.772303 227.084222 
L 570.940869 228.688235 
L 572.894753 229.292929 
z
" clip-path="url(#pfc80e62ba5)" style="fill: #1fa088"/>
    <path d="M 576.109434 191.127707 
L 581.278 192.378021 
L 581.278 190.381818 
L 581.278 186.844444 
L 581.278 183.307071 
L 581.278 179.769697 
L 581.278 176.232323 
L 581.278 172.694949 
L 581.278 169.157576 
L 581.278 165.620202 
L 581.278 162.082828 
L 581.278 158.545455 
L 581.278 155.008081 
L 581.278 154.111603 
L 576.109434 153.177431 
L 570.940869 152.273389 
L 566.283364 151.470707 
L 565.772303 151.383286 
L 560.603737 150.499005 
L 555.435172 149.612496 
L 550.266606 148.819036 
L 545.09804 148.252052 
L 542.195347 147.933333 
L 539.929475 147.66534 
L 534.760909 147.00214 
L 529.592343 146.160073 
L 524.423778 144.931588 
L 522.879692 144.39596 
L 519.255212 142.425084 
L 516.567048 140.858586 
L 514.086646 139.414154 
L 510.289139 137.321212 
L 508.918081 136.613981 
L 503.749515 133.995527 
L 503.361813 133.783838 
L 498.580949 131.179626 
L 496.869514 130.246465 
L 493.412384 128.528963 
L 488.594038 126.709091 
L 488.243818 126.592637 
L 483.075253 125.020362 
L 477.906687 123.492548 
L 476.757756 123.171717 
L 472.738121 122.053454 
L 467.569556 120.52588 
L 464.765877 119.634343 
L 462.40099 118.899092 
L 457.232424 117.361313 
L 453.022804 116.09697 
L 452.063859 115.810119 
L 446.895293 114.263115 
L 441.726727 112.712595 
L 441.130915 112.559596 
L 436.558162 111.377053 
L 431.389596 110.157009 
L 426.76089 109.022222 
L 426.22103 108.886418 
L 421.052465 107.607687 
L 415.883899 106.360204 
L 412.263097 105.484848 
L 410.715333 105.1123 
L 405.546768 103.867324 
L 400.378202 102.627358 
L 397.153712 101.947475 
L 395.209636 101.483252 
L 390.041071 100.109745 
L 384.872505 98.73319 
L 383.620036 98.410101 
L 379.703939 97.353366 
L 374.535374 95.450919 
L 373.034688 94.872727 
L 369.366808 93.467838 
L 364.198242 91.48495 
L 363.81119 91.335354 
L 359.029677 89.50394 
L 354.586295 87.79798 
L 353.861111 87.520215 
L 348.692545 85.536708 
L 345.628822 84.260606 
L 343.52398 83.213659 
L 339.299097 80.723232 
L 338.355414 80.167316 
L 333.297527 77.185859 
L 333.186848 77.120658 
L 328.018283 74.075506 
L 327.339585 73.648485 
L 322.849717 70.694331 
L 322.030452 70.111111 
L 317.681152 66.93091 
L 317.19445 66.573737 
L 312.512586 63.136822 
L 312.372235 63.036364 
L 307.462159 59.49899 
L 307.34402 59.413324 
L 302.175455 56.407992 
L 301.408213 55.961616 
L 297.006889 53.402582 
L 295.325242 52.424242 
L 291.838323 50.396955 
L 289.372707 48.886869 
L 286.669758 47.293766 
L 283.706917 45.349495 
L 281.501192 43.90232 
L 278.315999 41.812121 
L 276.332626 40.510872 
L 272.924863 38.274747 
L 271.164061 37.11953 
L 267.533876 34.737374 
L 265.995495 33.691614 
L 262.192692 31.2 
L 260.826929 31.2 
L 255.658364 31.2 
L 250.489798 31.2 
L 245.321232 31.2 
L 240.152667 31.2 
L 234.984101 31.2 
L 229.815535 31.2 
L 224.64697 31.2 
L 219.478404 31.2 
L 214.309838 31.2 
L 209.141273 31.2 
L 203.972707 31.2 
L 198.804141 31.2 
L 193.635576 31.2 
L 188.46701 31.2 
L 183.298444 31.2 
L 178.129879 31.2 
L 172.961313 31.2 
L 167.792747 31.2 
L 164.380015 31.2 
L 167.792747 33.316645 
L 169.982204 34.737374 
L 172.961313 36.690763 
L 175.235738 38.274747 
L 178.129879 40.547308 
L 179.688029 41.812121 
L 183.298444 44.738401 
L 184.051284 45.349495 
L 188.46701 48.407935 
L 189.071112 48.886869 
L 193.635576 51.965518 
L 194.347441 52.424242 
L 198.804141 55.375113 
L 199.758771 55.961616 
L 203.972707 58.55344 
L 205.511752 59.49899 
L 209.141273 61.731393 
L 211.265338 63.036364 
L 214.309838 64.908935 
L 217.039408 66.573737 
L 219.478404 68.034563 
L 223.115238 70.111111 
L 224.64697 70.987304 
L 229.307877 73.648485 
L 229.815535 73.938878 
L 234.984101 76.892706 
L 235.497535 77.185859 
L 240.152667 79.848668 
L 241.684412 80.723232 
L 245.321232 82.803553 
L 247.873115 84.260606 
L 250.489798 85.757414 
L 254.063708 87.79798 
L 255.658364 88.710156 
L 260.256226 91.335354 
L 260.826929 91.661812 
L 265.995495 94.615318 
L 266.446328 94.872727 
L 271.164061 97.571356 
L 272.633065 98.410101 
L 276.332626 100.526319 
L 278.821629 101.947475 
L 281.501192 103.480225 
L 285.012181 105.484848 
L 286.669758 106.432201 
L 291.235513 109.022222 
L 291.838323 109.36235 
L 297.006889 112.191574 
L 297.732518 112.559596 
L 302.175455 114.650077 
L 305.706041 116.09697 
L 307.34402 116.759444 
L 312.512586 118.989294 
L 313.947209 119.634343 
L 317.681152 121.344899 
L 322.131324 123.171717 
L 322.849717 123.447602 
L 328.018283 125.430543 
L 331.367057 126.709091 
L 333.186848 127.408041 
L 338.355414 129.387802 
L 340.604411 130.246465 
L 343.52398 131.367813 
L 348.692545 133.34437 
L 349.969994 133.783838 
L 353.861111 135.054725 
L 359.029677 136.558071 
L 361.860728 137.321212 
L 364.198242 137.959806 
L 369.366808 139.212449 
L 374.535374 140.489877 
L 376.142966 140.858586 
L 379.703939 141.681665 
L 384.872505 142.872976 
L 390.041071 144.059703 
L 391.507199 144.39596 
L 395.209636 145.251718 
L 400.378202 146.442911 
L 405.546768 147.629487 
L 406.871547 147.933333 
L 410.715333 148.821797 
L 415.883899 150.012871 
L 421.052465 151.201451 
L 422.115121 151.470707 
L 426.22103 152.513571 
L 431.389596 153.839449 
L 435.96299 155.008081 
L 436.558162 155.14961 
L 441.726727 156.389147 
L 446.895293 157.608784 
L 450.271324 158.545455 
L 452.063859 159.055016 
L 457.232424 160.629232 
L 461.583723 162.082828 
L 462.40099 162.369826 
L 467.569556 164.214031 
L 471.380943 165.620202 
L 472.738121 166.117787 
L 477.906687 167.841047 
L 482.962998 169.157576 
L 483.075253 169.184481 
L 488.243818 170.363924 
L 493.412384 171.739237 
L 497.018573 172.694949 
L 498.580949 173.112875 
L 503.749515 174.492913 
L 508.918081 175.864805 
L 510.304808 176.232323 
L 514.086646 177.24394 
L 519.255212 178.620436 
L 523.591641 179.769697 
L 524.423778 179.992297 
L 529.592343 181.352223 
L 534.760909 182.468688 
L 538.696272 183.307071 
L 539.929475 183.569592 
L 545.09804 184.624852 
L 550.266606 185.685914 
L 555.435172 186.683104 
L 556.235664 186.844444 
L 560.603737 187.72119 
L 565.772303 188.833753 
L 570.940869 189.962231 
L 572.860532 190.381818 
z
" clip-path="url(#pfc80e62ba5)" style="fill: #3fbc73"/>
    <path d="M 570.940869 152.273389 
L 576.109434 153.177431 
L 581.278 154.111603 
L 581.278 151.470707 
L 581.278 147.933333 
L 581.278 144.39596 
L 581.278 140.858586 
L 581.278 137.321212 
L 581.278 133.783838 
L 581.278 130.246465 
L 581.278 126.709091 
L 581.278 123.171717 
L 581.278 119.634343 
L 581.278 116.09697 
L 581.278 112.559596 
L 581.278 109.022222 
L 581.278 105.484848 
L 581.278 101.947475 
L 581.278 98.410101 
L 581.278 94.872727 
L 581.278 91.335354 
L 581.278 87.79798 
L 581.278 84.260606 
L 581.278 80.723232 
L 581.278 77.185859 
L 581.278 73.648485 
L 581.278 70.111111 
L 581.278 66.573737 
L 581.278 63.036364 
L 581.278 59.49899 
L 581.278 55.961616 
L 581.278 52.424242 
L 581.278 48.886869 
L 581.278 45.349495 
L 581.278 41.812121 
L 581.278 38.274747 
L 581.278 34.737374 
L 581.278 31.2 
L 576.109434 31.2 
L 570.940869 31.2 
L 565.772303 31.2 
L 560.603737 31.2 
L 555.435172 31.2 
L 550.266606 31.2 
L 545.09804 31.2 
L 539.929475 31.2 
L 534.760909 31.2 
L 529.592343 31.2 
L 524.423778 31.2 
L 519.255212 31.2 
L 514.086646 31.2 
L 508.918081 31.2 
L 503.749515 31.2 
L 498.580949 31.2 
L 493.412384 31.2 
L 488.243818 31.2 
L 483.075253 31.2 
L 477.906687 31.2 
L 472.738121 31.2 
L 467.569556 31.2 
L 462.40099 31.2 
L 457.232424 31.2 
L 452.063859 31.2 
L 446.895293 31.2 
L 441.726727 31.2 
L 436.558162 31.2 
L 431.389596 31.2 
L 426.22103 31.2 
L 421.052465 31.2 
L 415.883899 31.2 
L 410.715333 31.2 
L 405.546768 31.2 
L 400.378202 31.2 
L 395.209636 31.2 
L 390.041071 31.2 
L 384.872505 31.2 
L 379.703939 31.2 
L 374.535374 31.2 
L 369.366808 31.2 
L 364.198242 31.2 
L 359.029677 31.2 
L 353.861111 31.2 
L 348.692545 31.2 
L 343.52398 31.2 
L 338.355414 31.2 
L 333.186848 31.2 
L 328.018283 31.2 
L 322.849717 31.2 
L 317.681152 31.2 
L 312.512586 31.2 
L 307.34402 31.2 
L 302.175455 31.2 
L 297.006889 31.2 
L 291.838323 31.2 
L 286.669758 31.2 
L 281.501192 31.2 
L 276.332626 31.2 
L 271.164061 31.2 
L 265.995495 31.2 
L 262.192692 31.2 
L 265.995495 33.691614 
L 267.533876 34.737374 
L 271.164061 37.11953 
L 272.924863 38.274747 
L 276.332626 40.510872 
L 278.315999 41.812121 
L 281.501192 43.90232 
L 283.706917 45.349495 
L 286.669758 47.293766 
L 289.372707 48.886869 
L 291.838323 50.396955 
L 295.325242 52.424242 
L 297.006889 53.402582 
L 301.408213 55.961616 
L 302.175455 56.407992 
L 307.34402 59.413324 
L 307.462159 59.49899 
L 312.372235 63.036364 
L 312.512586 63.136822 
L 317.19445 66.573737 
L 317.681152 66.93091 
L 322.030452 70.111111 
L 322.849717 70.694331 
L 327.339585 73.648485 
L 328.018283 74.075506 
L 333.186848 77.120658 
L 333.297527 77.185859 
L 338.355414 80.167316 
L 339.299097 80.723232 
L 343.52398 83.213659 
L 345.628822 84.260606 
L 348.692545 85.536708 
L 353.861111 87.520215 
L 354.586295 87.79798 
L 359.029677 89.50394 
L 363.81119 91.335354 
L 364.198242 91.48495 
L 369.366808 93.467838 
L 373.034688 94.872727 
L 374.535374 95.450919 
L 379.703939 97.353366 
L 383.620036 98.410101 
L 384.872505 98.73319 
L 390.041071 100.109745 
L 395.209636 101.483252 
L 397.153712 101.947475 
L 400.378202 102.627358 
L 405.546768 103.867324 
L 410.715333 105.1123 
L 412.263097 105.484848 
L 415.883899 106.360204 
L 421.052465 107.607687 
L 426.22103 108.886418 
L 426.76089 109.022222 
L 431.389596 110.157009 
L 436.558162 111.377053 
L 441.130915 112.559596 
L 441.726727 112.712595 
L 446.895293 114.263115 
L 452.063859 115.810119 
L 453.022804 116.09697 
L 457.232424 117.361313 
L 462.40099 118.899092 
L 464.765877 119.634343 
L 467.569556 120.52588 
L 472.738121 122.053454 
L 476.757756 123.171717 
L 477.906687 123.492548 
L 483.075253 125.020362 
L 488.243818 126.592637 
L 488.594038 126.709091 
L 493.412384 128.528963 
L 496.869514 130.246465 
L 498.580949 131.179626 
L 503.361813 133.783838 
L 503.749515 133.995527 
L 508.918081 136.613981 
L 510.289139 137.321212 
L 514.086646 139.414154 
L 516.567048 140.858586 
L 519.255212 142.425084 
L 522.879692 144.39596 
L 524.423778 144.931588 
L 529.592343 146.160073 
L 534.760909 147.00214 
L 539.929475 147.66534 
L 542.195347 147.933333 
L 545.09804 148.252052 
L 550.266606 148.819036 
L 555.435172 149.612496 
L 560.603737 150.499005 
L 565.772303 151.383286 
L 566.283364 151.470707 
z
" clip-path="url(#pfc80e62ba5)" style="fill: #aadc32"/>
   </g>
   <g id="matplotlib.axis_1">
    <g id="xtick_1">
     <g id="line2d_1">
      <defs>
       <path id="m871abc2cef" d="M 0 0 
L 0 3.5 
" style="stroke: #000000; stroke-width: 0.8"/>
      </defs>
      <g>
       <use xlink:href="#m871abc2cef" x="69.59" y="381.4" style="stroke: #000000; stroke-width: 0.8"/>
      </g>
     </g>
     <g id="text_1">
      <!-- 50 -->
      <g transform="translate(60.04625 399.797656) scale(0.15 -0.15)">
       <defs>
        <path id="DejaVuSans-35" d="M 691 4666 
L 3169 4666 
L 3169 4134 
L 1269 4134 
L 1269 2991 
Q 1406 3038 1543 3061 
Q 1681 3084 1819 3084 
Q 2600 3084 3056 2656 
Q 3513 2228 3513 1497 
Q 3513 744 3044 326 
Q 2575 -91 1722 -91 
Q 1428 -91 1123 -41 
Q 819 9 494 109 
L 494 744 
Q 775 591 1075 516 
Q 1375 441 1709 441 
Q 2250 441 2565 725 
Q 2881 1009 2881 1497 
Q 2881 1984 2565 2268 
Q 2250 2553 1709 2553 
Q 1456 2553 1204 2497 
Q 953 2441 691 2322 
L 691 4666 
z
" transform="scale(0.015625)"/>
        <path id="DejaVuSans-30" d="M 2034 4250 
Q 1547 4250 1301 3770 
Q 1056 3291 1056 2328 
Q 1056 1369 1301 889 
Q 1547 409 2034 409 
Q 2525 409 2770 889 
Q 3016 1369 3016 2328 
Q 3016 3291 2770 3770 
Q 2525 4250 2034 4250 
z
M 2034 4750 
Q 2819 4750 3233 4129 
Q 3647 3509 3647 2328 
Q 3647 1150 3233 529 
Q 2819 -91 2034 -91 
Q 1250 -91 836 529 
Q 422 1150 422 2328 
Q 422 3509 836 4129 
Q 1250 4750 2034 4750 
z
" transform="scale(0.015625)"/>
       </defs>
       <use xlink:href="#DejaVuSans-35"/>
       <use xlink:href="#DejaVuSans-30" x="63.623047"/>
      </g>
     </g>
    </g>
    <g id="xtick_2">
     <g id="line2d_2">
      <g>
       <use xlink:href="#m871abc2cef" x="171.9276" y="381.4" style="stroke: #000000; stroke-width: 0.8"/>
      </g>
     </g>
     <g id="text_2">
      <!-- 100 -->
      <g transform="translate(157.611975 399.797656) scale(0.15 -0.15)">
       <defs>
        <path id="DejaVuSans-31" d="M 794 531 
L 1825 531 
L 1825 4091 
L 703 3866 
L 703 4441 
L 1819 4666 
L 2450 4666 
L 2450 531 
L 3481 531 
L 3481 0 
L 794 0 
L 794 531 
z
" transform="scale(0.015625)"/>
       </defs>
       <use xlink:href="#DejaVuSans-31"/>
       <use xlink:href="#DejaVuSans-30" x="63.623047"/>
       <use xlink:href="#DejaVuSans-30" x="127.246094"/>
      </g>
     </g>
    </g>
    <g id="xtick_3">
     <g id="line2d_3">
      <g>
       <use xlink:href="#m871abc2cef" x="274.2652" y="381.4" style="stroke: #000000; stroke-width: 0.8"/>
      </g>
     </g>
     <g id="text_3">
      <!-- 150 -->
      <g transform="translate(259.949575 399.797656) scale(0.15 -0.15)">
       <use xlink:href="#DejaVuSans-31"/>
       <use xlink:href="#DejaVuSans-35" x="63.623047"/>
       <use xlink:href="#DejaVuSans-30" x="127.246094"/>
      </g>
     </g>
    </g>
    <g id="xtick_4">
     <g id="line2d_4">
      <g>
       <use xlink:href="#m871abc2cef" x="376.6028" y="381.4" style="stroke: #000000; stroke-width: 0.8"/>
      </g>
     </g>
     <g id="text_4">
      <!-- 200 -->
      <g transform="translate(362.287175 399.797656) scale(0.15 -0.15)">
       <defs>
        <path id="DejaVuSans-32" d="M 1228 531 
L 3431 531 
L 3431 0 
L 469 0 
L 469 531 
Q 828 903 1448 1529 
Q 2069 2156 2228 2338 
Q 2531 2678 2651 2914 
Q 2772 3150 2772 3378 
Q 2772 3750 2511 3984 
Q 2250 4219 1831 4219 
Q 1534 4219 1204 4116 
Q 875 4013 500 3803 
L 500 4441 
Q 881 4594 1212 4672 
Q 1544 4750 1819 4750 
Q 2544 4750 2975 4387 
Q 3406 4025 3406 3419 
Q 3406 3131 3298 2873 
Q 3191 2616 2906 2266 
Q 2828 2175 2409 1742 
Q 1991 1309 1228 531 
z
" transform="scale(0.015625)"/>
       </defs>
       <use xlink:href="#DejaVuSans-32"/>
       <use xlink:href="#DejaVuSans-30" x="63.623047"/>
       <use xlink:href="#DejaVuSans-30" x="127.246094"/>
      </g>
     </g>
    </g>
    <g id="xtick_5">
     <g id="line2d_5">
      <g>
       <use xlink:href="#m871abc2cef" x="478.9404" y="381.4" style="stroke: #000000; stroke-width: 0.8"/>
      </g>
     </g>
     <g id="text_5">
      <!-- 250 -->
      <g transform="translate(464.624775 399.797656) scale(0.15 -0.15)">
       <use xlink:href="#DejaVuSans-32"/>
       <use xlink:href="#DejaVuSans-35" x="63.623047"/>
       <use xlink:href="#DejaVuSans-30" x="127.246094"/>
      </g>
     </g>
    </g>
    <g id="xtick_6">
     <g id="line2d_6">
      <g>
       <use xlink:href="#m871abc2cef" x="581.278" y="381.4" style="stroke: #000000; stroke-width: 0.8"/>
      </g>
     </g>
     <g id="text_6">
      <!-- 300 -->
      <g transform="translate(566.962375 399.797656) scale(0.15 -0.15)">
       <defs>
        <path id="DejaVuSans-33" d="M 2597 2516 
Q 3050 2419 3304 2112 
Q 3559 1806 3559 1356 
Q 3559 666 3084 287 
Q 2609 -91 1734 -91 
Q 1441 -91 1130 -33 
Q 819 25 488 141 
L 488 750 
Q 750 597 1062 519 
Q 1375 441 1716 441 
Q 2309 441 2620 675 
Q 2931 909 2931 1356 
Q 2931 1769 2642 2001 
Q 2353 2234 1838 2234 
L 1294 2234 
L 1294 2753 
L 1863 2753 
Q 2328 2753 2575 2939 
Q 2822 3125 2822 3475 
Q 2822 3834 2567 4026 
Q 2313 4219 1838 4219 
Q 1578 4219 1281 4162 
Q 984 4106 628 3988 
L 628 4550 
Q 988 4650 1302 4700 
Q 1616 4750 1894 4750 
Q 2613 4750 3031 4423 
Q 3450 4097 3450 3541 
Q 3450 3153 3228 2886 
Q 3006 2619 2597 2516 
z
" transform="scale(0.015625)"/>
       </defs>
       <use xlink:href="#DejaVuSans-33"/>
       <use xlink:href="#DejaVuSans-30" x="63.623047"/>
       <use xlink:href="#DejaVuSans-30" x="127.246094"/>
      </g>
     </g>
    </g>
    <g id="text_7">
     <!-- $N$ -->
     <g transform="translate(319.809 418.314844) scale(0.15 -0.15)">
      <defs>
       <path id="DejaVuSans-Oblique-4e" d="M 1081 4666 
L 1931 4666 
L 3219 666 
L 4000 4666 
L 4616 4666 
L 3706 0 
L 2853 0 
L 1569 4025 
L 788 0 
L 172 0 
L 1081 4666 
z
" transform="scale(0.015625)"/>
      </defs>
      <use xlink:href="#DejaVuSans-Oblique-4e" transform="translate(0 0.09375)"/>
     </g>
    </g>
   </g>
   <g id="matplotlib.axis_2">
    <g id="ytick_1">
     <g id="line2d_7">
      <defs>
       <path id="m7cc84f5866" d="M 0 0 
L -3.5 0 
" style="stroke: #000000; stroke-width: 0.8"/>
      </defs>
      <g>
       <use xlink:href="#m7cc84f5866" x="69.59" y="381.4" style="stroke: #000000; stroke-width: 0.8"/>
      </g>
     </g>
     <g id="text_8">
      <!-- 10.0 -->
      <g transform="translate(29.191563 387.098828) scale(0.15 -0.15)">
       <defs>
        <path id="DejaVuSans-2e" d="M 684 794 
L 1344 794 
L 1344 0 
L 684 0 
L 684 794 
z
" transform="scale(0.015625)"/>
       </defs>
       <use xlink:href="#DejaVuSans-31"/>
       <use xlink:href="#DejaVuSans-30" x="63.623047"/>
       <use xlink:href="#DejaVuSans-2e" x="127.246094"/>
       <use xlink:href="#DejaVuSans-30" x="159.033203"/>
      </g>
     </g>
    </g>
    <g id="ytick_2">
     <g id="line2d_8">
      <g>
       <use xlink:href="#m7cc84f5866" x="69.59" y="337.625" style="stroke: #000000; stroke-width: 0.8"/>
      </g>
     </g>
     <g id="text_9">
      <!-- 12.5 -->
      <g transform="translate(29.191563 343.323828) scale(0.15 -0.15)">
       <use xlink:href="#DejaVuSans-31"/>
       <use xlink:href="#DejaVuSans-32" x="63.623047"/>
       <use xlink:href="#DejaVuSans-2e" x="127.246094"/>
       <use xlink:href="#DejaVuSans-35" x="159.033203"/>
      </g>
     </g>
    </g>
    <g id="ytick_3">
     <g id="line2d_9">
      <g>
       <use xlink:href="#m7cc84f5866" x="69.59" y="293.85" style="stroke: #000000; stroke-width: 0.8"/>
      </g>
     </g>
     <g id="text_10">
      <!-- 15.0 -->
      <g transform="translate(29.191563 299.548828) scale(0.15 -0.15)">
       <use xlink:href="#DejaVuSans-31"/>
       <use xlink:href="#DejaVuSans-35" x="63.623047"/>
       <use xlink:href="#DejaVuSans-2e" x="127.246094"/>
       <use xlink:href="#DejaVuSans-30" x="159.033203"/>
      </g>
     </g>
    </g>
    <g id="ytick_4">
     <g id="line2d_10">
      <g>
       <use xlink:href="#m7cc84f5866" x="69.59" y="250.075" style="stroke: #000000; stroke-width: 0.8"/>
      </g>
     </g>
     <g id="text_11">
      <!-- 17.5 -->
      <g transform="translate(29.191563 255.773828) scale(0.15 -0.15)">
       <defs>
        <path id="DejaVuSans-37" d="M 525 4666 
L 3525 4666 
L 3525 4397 
L 1831 0 
L 1172 0 
L 2766 4134 
L 525 4134 
L 525 4666 
z
" transform="scale(0.015625)"/>
       </defs>
       <use xlink:href="#DejaVuSans-31"/>
       <use xlink:href="#DejaVuSans-37" x="63.623047"/>
       <use xlink:href="#DejaVuSans-2e" x="127.246094"/>
       <use xlink:href="#DejaVuSans-35" x="159.033203"/>
      </g>
     </g>
    </g>
    <g id="ytick_5">
     <g id="line2d_11">
      <g>
       <use xlink:href="#m7cc84f5866" x="69.59" y="206.3" style="stroke: #000000; stroke-width: 0.8"/>
      </g>
     </g>
     <g id="text_12">
      <!-- 20.0 -->
      <g transform="translate(29.191563 211.998828) scale(0.15 -0.15)">
       <use xlink:href="#DejaVuSans-32"/>
       <use xlink:href="#DejaVuSans-30" x="63.623047"/>
       <use xlink:href="#DejaVuSans-2e" x="127.246094"/>
       <use xlink:href="#DejaVuSans-30" x="159.033203"/>
      </g>
     </g>
    </g>
    <g id="ytick_6">
     <g id="line2d_12">
      <g>
       <use xlink:href="#m7cc84f5866" x="69.59" y="162.525" style="stroke: #000000; stroke-width: 0.8"/>
      </g>
     </g>
     <g id="text_13">
      <!-- 22.5 -->
      <g transform="translate(29.191563 168.223828) scale(0.15 -0.15)">
       <use xlink:href="#DejaVuSans-32"/>
       <use xlink:href="#DejaVuSans-32" x="63.623047"/>
       <use xlink:href="#DejaVuSans-2e" x="127.246094"/>
       <use xlink:href="#DejaVuSans-35" x="159.033203"/>
      </g>
     </g>
    </g>
    <g id="ytick_7">
     <g id="line2d_13">
      <g>
       <use xlink:href="#m7cc84f5866" x="69.59" y="118.75" style="stroke: #000000; stroke-width: 0.8"/>
      </g>
     </g>
     <g id="text_14">
      <!-- 25.0 -->
      <g transform="translate(29.191563 124.448828) scale(0.15 -0.15)">
       <use xlink:href="#DejaVuSans-32"/>
       <use xlink:href="#DejaVuSans-35" x="63.623047"/>
       <use xlink:href="#DejaVuSans-2e" x="127.246094"/>
       <use xlink:href="#DejaVuSans-30" x="159.033203"/>
      </g>
     </g>
    </g>
    <g id="ytick_8">
     <g id="line2d_14">
      <g>
       <use xlink:href="#m7cc84f5866" x="69.59" y="74.975" style="stroke: #000000; stroke-width: 0.8"/>
      </g>
     </g>
     <g id="text_15">
      <!-- 27.5 -->
      <g transform="translate(29.191563 80.673828) scale(0.15 -0.15)">
       <use xlink:href="#DejaVuSans-32"/>
       <use xlink:href="#DejaVuSans-37" x="63.623047"/>
       <use xlink:href="#DejaVuSans-2e" x="127.246094"/>
       <use xlink:href="#DejaVuSans-35" x="159.033203"/>
      </g>
     </g>
    </g>
    <g id="ytick_9">
     <g id="line2d_15">
      <g>
       <use xlink:href="#m7cc84f5866" x="69.59" y="31.2" style="stroke: #000000; stroke-width: 0.8"/>
      </g>
     </g>
     <g id="text_16">
      <!-- 30.0 -->
      <g transform="translate(29.191563 36.898828) scale(0.15 -0.15)">
       <use xlink:href="#DejaVuSans-33"/>
       <use xlink:href="#DejaVuSans-30" x="63.623047"/>
       <use xlink:href="#DejaVuSans-2e" x="127.246094"/>
       <use xlink:href="#DejaVuSans-30" x="159.033203"/>
      </g>
     </g>
    </g>
    <g id="text_17">
     <!-- $v_0$ -->
     <g transform="translate(22.072031 214.325) rotate(-90) scale(0.15 -0.15)">
      <defs>
       <path id="DejaVuSans-Oblique-76" d="M 459 3500 
L 1069 3500 
L 1581 525 
L 3256 3500 
L 3866 3500 
L 1875 0 
L 1100 0 
L 459 3500 
z
" transform="scale(0.015625)"/>
      </defs>
      <use xlink:href="#DejaVuSans-Oblique-76" transform="translate(0 0.3125)"/>
      <use xlink:href="#DejaVuSans-30" transform="translate(59.179688 -16.09375) scale(0.7)"/>
     </g>
    </g>
   </g>
   <g id="patch_3">
    <path d="M 69.59 381.4 
L 69.59 31.2 
" style="fill: none; stroke: #000000; stroke-width: 0.8; stroke-linejoin: miter; stroke-linecap: square"/>
   </g>
   <g id="patch_4">
    <path d="M 581.278 381.4 
L 581.278 31.2 
" style="fill: none; stroke: #000000; stroke-width: 0.8; stroke-linejoin: miter; stroke-linecap: square"/>
   </g>
   <g id="patch_5">
    <path d="M 69.59 381.4 
L 581.278 381.4 
" style="fill: none; stroke: #000000; stroke-width: 0.8; stroke-linejoin: miter; stroke-linecap: square"/>
   </g>
   <g id="patch_6">
    <path d="M 69.59 31.2 
L 581.278 31.2 
" style="fill: none; stroke: #000000; stroke-width: 0.8; stroke-linejoin: miter; stroke-linecap: square"/>
   </g>
   <g id="text_18">
    <!-- Valores de $f_I$ de la prediccin con $R_{cont} = 2$ -->
    <g transform="translate(167.559 25.2) scale(0.15 -0.15)">
     <defs>
      <path id="DejaVuSans-56" d="M 1831 0 
L 50 4666 
L 709 4666 
L 2188 738 
L 3669 4666 
L 4325 4666 
L 2547 0 
L 1831 0 
z
" transform="scale(0.015625)"/>
      <path id="DejaVuSans-61" d="M 2194 1759 
Q 1497 1759 1228 1600 
Q 959 1441 959 1056 
Q 959 750 1161 570 
Q 1363 391 1709 391 
Q 2188 391 2477 730 
Q 2766 1069 2766 1631 
L 2766 1759 
L 2194 1759 
z
M 3341 1997 
L 3341 0 
L 2766 0 
L 2766 531 
Q 2569 213 2275 61 
Q 1981 -91 1556 -91 
Q 1019 -91 701 211 
Q 384 513 384 1019 
Q 384 1609 779 1909 
Q 1175 2209 1959 2209 
L 2766 2209 
L 2766 2266 
Q 2766 2663 2505 2880 
Q 2244 3097 1772 3097 
Q 1472 3097 1187 3025 
Q 903 2953 641 2809 
L 641 3341 
Q 956 3463 1253 3523 
Q 1550 3584 1831 3584 
Q 2591 3584 2966 3190 
Q 3341 2797 3341 1997 
z
" transform="scale(0.015625)"/>
      <path id="DejaVuSans-6c" d="M 603 4863 
L 1178 4863 
L 1178 0 
L 603 0 
L 603 4863 
z
" transform="scale(0.015625)"/>
      <path id="DejaVuSans-6f" d="M 1959 3097 
Q 1497 3097 1228 2736 
Q 959 2375 959 1747 
Q 959 1119 1226 758 
Q 1494 397 1959 397 
Q 2419 397 2687 759 
Q 2956 1122 2956 1747 
Q 2956 2369 2687 2733 
Q 2419 3097 1959 3097 
z
M 1959 3584 
Q 2709 3584 3137 3096 
Q 3566 2609 3566 1747 
Q 3566 888 3137 398 
Q 2709 -91 1959 -91 
Q 1206 -91 779 398 
Q 353 888 353 1747 
Q 353 2609 779 3096 
Q 1206 3584 1959 3584 
z
" transform="scale(0.015625)"/>
      <path id="DejaVuSans-72" d="M 2631 2963 
Q 2534 3019 2420 3045 
Q 2306 3072 2169 3072 
Q 1681 3072 1420 2755 
Q 1159 2438 1159 1844 
L 1159 0 
L 581 0 
L 581 3500 
L 1159 3500 
L 1159 2956 
Q 1341 3275 1631 3429 
Q 1922 3584 2338 3584 
Q 2397 3584 2469 3576 
Q 2541 3569 2628 3553 
L 2631 2963 
z
" transform="scale(0.015625)"/>
      <path id="DejaVuSans-65" d="M 3597 1894 
L 3597 1613 
L 953 1613 
Q 991 1019 1311 708 
Q 1631 397 2203 397 
Q 2534 397 2845 478 
Q 3156 559 3463 722 
L 3463 178 
Q 3153 47 2828 -22 
Q 2503 -91 2169 -91 
Q 1331 -91 842 396 
Q 353 884 353 1716 
Q 353 2575 817 3079 
Q 1281 3584 2069 3584 
Q 2775 3584 3186 3129 
Q 3597 2675 3597 1894 
z
M 3022 2063 
Q 3016 2534 2758 2815 
Q 2500 3097 2075 3097 
Q 1594 3097 1305 2825 
Q 1016 2553 972 2059 
L 3022 2063 
z
" transform="scale(0.015625)"/>
      <path id="DejaVuSans-73" d="M 2834 3397 
L 2834 2853 
Q 2591 2978 2328 3040 
Q 2066 3103 1784 3103 
Q 1356 3103 1142 2972 
Q 928 2841 928 2578 
Q 928 2378 1081 2264 
Q 1234 2150 1697 2047 
L 1894 2003 
Q 2506 1872 2764 1633 
Q 3022 1394 3022 966 
Q 3022 478 2636 193 
Q 2250 -91 1575 -91 
Q 1294 -91 989 -36 
Q 684 19 347 128 
L 347 722 
Q 666 556 975 473 
Q 1284 391 1588 391 
Q 1994 391 2212 530 
Q 2431 669 2431 922 
Q 2431 1156 2273 1281 
Q 2116 1406 1581 1522 
L 1381 1569 
Q 847 1681 609 1914 
Q 372 2147 372 2553 
Q 372 3047 722 3315 
Q 1072 3584 1716 3584 
Q 2034 3584 2315 3537 
Q 2597 3491 2834 3397 
z
" transform="scale(0.015625)"/>
      <path id="DejaVuSans-20" transform="scale(0.015625)"/>
      <path id="DejaVuSans-64" d="M 2906 2969 
L 2906 4863 
L 3481 4863 
L 3481 0 
L 2906 0 
L 2906 525 
Q 2725 213 2448 61 
Q 2172 -91 1784 -91 
Q 1150 -91 751 415 
Q 353 922 353 1747 
Q 353 2572 751 3078 
Q 1150 3584 1784 3584 
Q 2172 3584 2448 3432 
Q 2725 3281 2906 2969 
z
M 947 1747 
Q 947 1113 1208 752 
Q 1469 391 1925 391 
Q 2381 391 2643 752 
Q 2906 1113 2906 1747 
Q 2906 2381 2643 2742 
Q 2381 3103 1925 3103 
Q 1469 3103 1208 2742 
Q 947 2381 947 1747 
z
" transform="scale(0.015625)"/>
      <path id="DejaVuSans-Oblique-66" d="M 3059 4863 
L 2969 4384 
L 2419 4384 
Q 2106 4384 1964 4261 
Q 1822 4138 1753 3809 
L 1691 3500 
L 2638 3500 
L 2553 3053 
L 1606 3053 
L 1013 0 
L 434 0 
L 1031 3053 
L 481 3053 
L 563 3500 
L 1113 3500 
L 1159 3744 
Q 1278 4363 1576 4613 
Q 1875 4863 2516 4863 
L 3059 4863 
z
" transform="scale(0.015625)"/>
      <path id="DejaVuSans-Oblique-49" d="M 1081 4666 
L 1716 4666 
L 806 0 
L 172 0 
L 1081 4666 
z
" transform="scale(0.015625)"/>
      <path id="DejaVuSans-70" d="M 1159 525 
L 1159 -1331 
L 581 -1331 
L 581 3500 
L 1159 3500 
L 1159 2969 
Q 1341 3281 1617 3432 
Q 1894 3584 2278 3584 
Q 2916 3584 3314 3078 
Q 3713 2572 3713 1747 
Q 3713 922 3314 415 
Q 2916 -91 2278 -91 
Q 1894 -91 1617 61 
Q 1341 213 1159 525 
z
M 3116 1747 
Q 3116 2381 2855 2742 
Q 2594 3103 2138 3103 
Q 1681 3103 1420 2742 
Q 1159 2381 1159 1747 
Q 1159 1113 1420 752 
Q 1681 391 2138 391 
Q 2594 391 2855 752 
Q 3116 1113 3116 1747 
z
" transform="scale(0.015625)"/>
      <path id="DejaVuSans-69" d="M 603 3500 
L 1178 3500 
L 1178 0 
L 603 0 
L 603 3500 
z
M 603 4863 
L 1178 4863 
L 1178 4134 
L 603 4134 
L 603 4863 
z
" transform="scale(0.015625)"/>
      <path id="DejaVuSans-63" d="M 3122 3366 
L 3122 2828 
Q 2878 2963 2633 3030 
Q 2388 3097 2138 3097 
Q 1578 3097 1268 2742 
Q 959 2388 959 1747 
Q 959 1106 1268 751 
Q 1578 397 2138 397 
Q 2388 397 2633 464 
Q 2878 531 3122 666 
L 3122 134 
Q 2881 22 2623 -34 
Q 2366 -91 2075 -91 
Q 1284 -91 818 406 
Q 353 903 353 1747 
Q 353 2603 823 3093 
Q 1294 3584 2113 3584 
Q 2378 3584 2631 3529 
Q 2884 3475 3122 3366 
z
" transform="scale(0.015625)"/>
      <path id="DejaVuSans-f3" d="M 1959 3097 
Q 1497 3097 1228 2736 
Q 959 2375 959 1747 
Q 959 1119 1226 758 
Q 1494 397 1959 397 
Q 2419 397 2687 759 
Q 2956 1122 2956 1747 
Q 2956 2369 2687 2733 
Q 2419 3097 1959 3097 
z
M 1959 3584 
Q 2709 3584 3137 3096 
Q 3566 2609 3566 1747 
Q 3566 888 3137 398 
Q 2709 -91 1959 -91 
Q 1206 -91 779 398 
Q 353 888 353 1747 
Q 353 2609 779 3096 
Q 1206 3584 1959 3584 
z
M 2394 5119 
L 3016 5119 
L 1998 3944 
L 1519 3944 
L 2394 5119 
z
" transform="scale(0.015625)"/>
      <path id="DejaVuSans-6e" d="M 3513 2113 
L 3513 0 
L 2938 0 
L 2938 2094 
Q 2938 2591 2744 2837 
Q 2550 3084 2163 3084 
Q 1697 3084 1428 2787 
Q 1159 2491 1159 1978 
L 1159 0 
L 581 0 
L 581 3500 
L 1159 3500 
L 1159 2956 
Q 1366 3272 1645 3428 
Q 1925 3584 2291 3584 
Q 2894 3584 3203 3211 
Q 3513 2838 3513 2113 
z
" transform="scale(0.015625)"/>
      <path id="DejaVuSans-Oblique-52" d="M 1613 4147 
L 1294 2491 
L 2106 2491 
Q 2584 2491 2879 2755 
Q 3175 3019 3175 3444 
Q 3175 3784 2976 3965 
Q 2778 4147 2406 4147 
L 1613 4147 
z
M 2772 2241 
Q 2972 2194 3105 2009 
Q 3238 1825 3413 1275 
L 3809 0 
L 3144 0 
L 2778 1197 
Q 2638 1659 2453 1815 
Q 2269 1972 1888 1972 
L 1191 1972 
L 806 0 
L 172 0 
L 1081 4666 
L 2503 4666 
Q 3150 4666 3495 4373 
Q 3841 4081 3841 3531 
Q 3841 3044 3547 2687 
Q 3253 2331 2772 2241 
z
" transform="scale(0.015625)"/>
      <path id="DejaVuSans-Oblique-63" d="M 3431 3366 
L 3316 2797 
Q 3109 2947 2876 3022 
Q 2644 3097 2394 3097 
Q 2119 3097 1870 3000 
Q 1622 2903 1453 2725 
Q 1184 2453 1037 2087 
Q 891 1722 891 1331 
Q 891 859 1127 628 
Q 1363 397 1844 397 
Q 2081 397 2348 469 
Q 2616 541 2906 684 
L 2797 116 
Q 2547 13 2283 -39 
Q 2019 -91 1741 -91 
Q 1044 -91 669 257 
Q 294 606 294 1253 
Q 294 1797 489 2255 
Q 684 2713 1069 3078 
Q 1331 3328 1684 3456 
Q 2038 3584 2456 3584 
Q 2700 3584 2940 3529 
Q 3181 3475 3431 3366 
z
" transform="scale(0.015625)"/>
      <path id="DejaVuSans-Oblique-6f" d="M 1625 -91 
Q 1009 -91 651 289 
Q 294 669 294 1325 
Q 294 1706 417 2101 
Q 541 2497 738 2766 
Q 1047 3184 1428 3384 
Q 1809 3584 2291 3584 
Q 2888 3584 3255 3212 
Q 3622 2841 3622 2241 
Q 3622 1825 3500 1412 
Q 3378 1000 3181 728 
Q 2875 309 2494 109 
Q 2113 -91 1625 -91 
z
M 891 1344 
Q 891 869 1089 633 
Q 1288 397 1691 397 
Q 2269 397 2648 901 
Q 3028 1406 3028 2181 
Q 3028 2634 2825 2865 
Q 2622 3097 2228 3097 
Q 1903 3097 1650 2945 
Q 1397 2794 1197 2484 
Q 1050 2253 970 1956 
Q 891 1659 891 1344 
z
" transform="scale(0.015625)"/>
      <path id="DejaVuSans-Oblique-6e" d="M 3566 2113 
L 3156 0 
L 2578 0 
L 2988 2091 
Q 3016 2238 3031 2350 
Q 3047 2463 3047 2528 
Q 3047 2791 2881 2937 
Q 2716 3084 2419 3084 
Q 1956 3084 1622 2776 
Q 1288 2469 1184 1941 
L 800 0 
L 225 0 
L 903 3500 
L 1478 3500 
L 1363 2950 
Q 1603 3253 1940 3418 
Q 2278 3584 2650 3584 
Q 3113 3584 3367 3334 
Q 3622 3084 3622 2631 
Q 3622 2519 3608 2391 
Q 3594 2263 3566 2113 
z
" transform="scale(0.015625)"/>
      <path id="DejaVuSans-Oblique-74" d="M 2706 3500 
L 2619 3053 
L 1472 3053 
L 1100 1153 
Q 1081 1047 1072 975 
Q 1063 903 1063 863 
Q 1063 663 1183 572 
Q 1303 481 1569 481 
L 2150 481 
L 2053 0 
L 1503 0 
Q 991 0 739 200 
Q 488 400 488 806 
Q 488 878 497 964 
Q 506 1050 525 1153 
L 897 3053 
L 409 3053 
L 500 3500 
L 978 3500 
L 1172 4494 
L 1747 4494 
L 1556 3500 
L 2706 3500 
z
" transform="scale(0.015625)"/>
      <path id="DejaVuSans-3d" d="M 678 2906 
L 4684 2906 
L 4684 2381 
L 678 2381 
L 678 2906 
z
M 678 1631 
L 4684 1631 
L 4684 1100 
L 678 1100 
L 678 1631 
z
" transform="scale(0.015625)"/>
     </defs>
     <use xlink:href="#DejaVuSans-56" transform="translate(0 0.015625)"/>
     <use xlink:href="#DejaVuSans-61" transform="translate(68.408203 0.015625)"/>
     <use xlink:href="#DejaVuSans-6c" transform="translate(129.6875 0.015625)"/>
     <use xlink:href="#DejaVuSans-6f" transform="translate(157.470703 0.015625)"/>
     <use xlink:href="#DejaVuSans-72" transform="translate(218.652344 0.015625)"/>
     <use xlink:href="#DejaVuSans-65" transform="translate(259.765625 0.015625)"/>
     <use xlink:href="#DejaVuSans-73" transform="translate(321.289062 0.015625)"/>
     <use xlink:href="#DejaVuSans-20" transform="translate(373.388672 0.015625)"/>
     <use xlink:href="#DejaVuSans-64" transform="translate(405.175781 0.015625)"/>
     <use xlink:href="#DejaVuSans-65" transform="translate(468.652344 0.015625)"/>
     <use xlink:href="#DejaVuSans-20" transform="translate(530.175781 0.015625)"/>
     <use xlink:href="#DejaVuSans-Oblique-66" transform="translate(561.962891 0.015625)"/>
     <use xlink:href="#DejaVuSans-Oblique-49" transform="translate(597.167969 -16.390625) scale(0.7)"/>
     <use xlink:href="#DejaVuSans-20" transform="translate(620.546875 0.015625)"/>
     <use xlink:href="#DejaVuSans-64" transform="translate(652.333984 0.015625)"/>
     <use xlink:href="#DejaVuSans-65" transform="translate(715.810547 0.015625)"/>
     <use xlink:href="#DejaVuSans-20" transform="translate(777.333984 0.015625)"/>
     <use xlink:href="#DejaVuSans-6c" transform="translate(809.121094 0.015625)"/>
     <use xlink:href="#DejaVuSans-61" transform="translate(836.904297 0.015625)"/>
     <use xlink:href="#DejaVuSans-20" transform="translate(898.183594 0.015625)"/>
     <use xlink:href="#DejaVuSans-70" transform="translate(929.970703 0.015625)"/>
     <use xlink:href="#DejaVuSans-72" transform="translate(993.447266 0.015625)"/>
     <use xlink:href="#DejaVuSans-65" transform="translate(1034.560547 0.015625)"/>
     <use xlink:href="#DejaVuSans-64" transform="translate(1096.083984 0.015625)"/>
     <use xlink:href="#DejaVuSans-69" transform="translate(1159.560547 0.015625)"/>
     <use xlink:href="#DejaVuSans-63" transform="translate(1187.34375 0.015625)"/>
     <use xlink:href="#DejaVuSans-63" transform="translate(1242.324219 0.015625)"/>
     <use xlink:href="#DejaVuSans-69" transform="translate(1297.304688 0.015625)"/>
     <use xlink:href="#DejaVuSans-f3" transform="translate(1325.087891 0.015625)"/>
     <use xlink:href="#DejaVuSans-6e" transform="translate(1386.269531 0.015625)"/>
     <use xlink:href="#DejaVuSans-20" transform="translate(1449.648438 0.015625)"/>
     <use xlink:href="#DejaVuSans-63" transform="translate(1481.435547 0.015625)"/>
     <use xlink:href="#DejaVuSans-6f" transform="translate(1536.416016 0.015625)"/>
     <use xlink:href="#DejaVuSans-6e" transform="translate(1597.597656 0.015625)"/>
     <use xlink:href="#DejaVuSans-20" transform="translate(1660.976562 0.015625)"/>
     <use xlink:href="#DejaVuSans-Oblique-52" transform="translate(1692.763672 0.015625)"/>
     <use xlink:href="#DejaVuSans-Oblique-63" transform="translate(1762.246094 -16.390625) scale(0.7)"/>
     <use xlink:href="#DejaVuSans-Oblique-6f" transform="translate(1800.732422 -16.390625) scale(0.7)"/>
     <use xlink:href="#DejaVuSans-Oblique-6e" transform="translate(1843.55957 -16.390625) scale(0.7)"/>
     <use xlink:href="#DejaVuSans-Oblique-74" transform="translate(1887.924805 -16.390625) scale(0.7)"/>
     <use xlink:href="#DejaVuSans-3d" transform="translate(1937.587891 0.015625)"/>
     <use xlink:href="#DejaVuSans-32" transform="translate(2040.859375 0.015625)"/>
    </g>
   </g>
  </g>
  <g id="axes_2">
   <g id="patch_7">
    <path d="M 613.2585 381.4 
L 630.7685 381.4 
L 630.7685 31.2 
L 613.2585 31.2 
z
" style="fill: #ffffff"/>
   </g>
   <g id="QuadMesh_1">
    <path d="M 613.2585 381.4 
L 630.7685 381.4 
L 630.7685 331.371429 
L 613.2585 331.371429 
L 613.2585 381.4 
" clip-path="url(#p2112d07204)" style="fill: #48186a"/>
    <path d="M 613.2585 331.371429 
L 630.7685 331.371429 
L 630.7685 281.342857 
L 613.2585 281.342857 
L 613.2585 331.371429 
" clip-path="url(#p2112d07204)" style="fill: #424086"/>
    <path d="M 613.2585 281.342857 
L 630.7685 281.342857 
L 630.7685 231.314286 
L 613.2585 231.314286 
L 613.2585 281.342857 
" clip-path="url(#p2112d07204)" style="fill: #33638d"/>
    <path d="M 613.2585 231.314286 
L 630.7685 231.314286 
L 630.7685 181.285714 
L 613.2585 181.285714 
L 613.2585 231.314286 
" clip-path="url(#p2112d07204)" style="fill: #26818e"/>
    <path d="M 613.2585 181.285714 
L 630.7685 181.285714 
L 630.7685 131.257143 
L 613.2585 131.257143 
L 613.2585 181.285714 
" clip-path="url(#p2112d07204)" style="fill: #1fa088"/>
    <path d="M 613.2585 131.257143 
L 630.7685 131.257143 
L 630.7685 81.228571 
L 613.2585 81.228571 
L 613.2585 131.257143 
" clip-path="url(#p2112d07204)" style="fill: #3fbc73"/>
    <path d="M 613.2585 81.228571 
L 630.7685 81.228571 
L 630.7685 31.2 
L 613.2585 31.2 
L 613.2585 81.228571 
" clip-path="url(#p2112d07204)" style="fill: #aadc32"/>
   </g>
   <g id="matplotlib.axis_3"/>
   <g id="matplotlib.axis_4">
    <g id="ytick_10">
     <g id="line2d_16">
      <defs>
       <path id="m5345650b60" d="M 0 0 
L 3.5 0 
" style="stroke: #000000; stroke-width: 0.8"/>
      </defs>
      <g>
       <use xlink:href="#m5345650b60" x="630.7685" y="381.4" style="stroke: #000000; stroke-width: 0.8"/>
      </g>
     </g>
     <g id="text_19">
      <!-- 0.00 -->
      <g transform="translate(637.7685 387.098828) scale(0.15 -0.15)">
       <use xlink:href="#DejaVuSans-30"/>
       <use xlink:href="#DejaVuSans-2e" x="63.623047"/>
       <use xlink:href="#DejaVuSans-30" x="95.410156"/>
       <use xlink:href="#DejaVuSans-30" x="159.033203"/>
      </g>
     </g>
    </g>
    <g id="ytick_11">
     <g id="line2d_17">
      <g>
       <use xlink:href="#m5345650b60" x="630.7685" y="331.371429" style="stroke: #000000; stroke-width: 0.8"/>
      </g>
     </g>
     <g id="text_20">
      <!-- 0.05 -->
      <g transform="translate(637.7685 337.070257) scale(0.15 -0.15)">
       <use xlink:href="#DejaVuSans-30"/>
       <use xlink:href="#DejaVuSans-2e" x="63.623047"/>
       <use xlink:href="#DejaVuSans-30" x="95.410156"/>
       <use xlink:href="#DejaVuSans-35" x="159.033203"/>
      </g>
     </g>
    </g>
    <g id="ytick_12">
     <g id="line2d_18">
      <g>
       <use xlink:href="#m5345650b60" x="630.7685" y="281.342857" style="stroke: #000000; stroke-width: 0.8"/>
      </g>
     </g>
     <g id="text_21">
      <!-- 0.10 -->
      <g transform="translate(637.7685 287.041685) scale(0.15 -0.15)">
       <use xlink:href="#DejaVuSans-30"/>
       <use xlink:href="#DejaVuSans-2e" x="63.623047"/>
       <use xlink:href="#DejaVuSans-31" x="95.410156"/>
       <use xlink:href="#DejaVuSans-30" x="159.033203"/>
      </g>
     </g>
    </g>
    <g id="ytick_13">
     <g id="line2d_19">
      <g>
       <use xlink:href="#m5345650b60" x="630.7685" y="231.314286" style="stroke: #000000; stroke-width: 0.8"/>
      </g>
     </g>
     <g id="text_22">
      <!-- 0.15 -->
      <g transform="translate(637.7685 237.013114) scale(0.15 -0.15)">
       <use xlink:href="#DejaVuSans-30"/>
       <use xlink:href="#DejaVuSans-2e" x="63.623047"/>
       <use xlink:href="#DejaVuSans-31" x="95.410156"/>
       <use xlink:href="#DejaVuSans-35" x="159.033203"/>
      </g>
     </g>
    </g>
    <g id="ytick_14">
     <g id="line2d_20">
      <g>
       <use xlink:href="#m5345650b60" x="630.7685" y="181.285714" style="stroke: #000000; stroke-width: 0.8"/>
      </g>
     </g>
     <g id="text_23">
      <!-- 0.20 -->
      <g transform="translate(637.7685 186.984542) scale(0.15 -0.15)">
       <use xlink:href="#DejaVuSans-30"/>
       <use xlink:href="#DejaVuSans-2e" x="63.623047"/>
       <use xlink:href="#DejaVuSans-32" x="95.410156"/>
       <use xlink:href="#DejaVuSans-30" x="159.033203"/>
      </g>
     </g>
    </g>
    <g id="ytick_15">
     <g id="line2d_21">
      <g>
       <use xlink:href="#m5345650b60" x="630.7685" y="131.257143" style="stroke: #000000; stroke-width: 0.8"/>
      </g>
     </g>
     <g id="text_24">
      <!-- 0.25 -->
      <g transform="translate(637.7685 136.955971) scale(0.15 -0.15)">
       <use xlink:href="#DejaVuSans-30"/>
       <use xlink:href="#DejaVuSans-2e" x="63.623047"/>
       <use xlink:href="#DejaVuSans-32" x="95.410156"/>
       <use xlink:href="#DejaVuSans-35" x="159.033203"/>
      </g>
     </g>
    </g>
    <g id="ytick_16">
     <g id="line2d_22">
      <g>
       <use xlink:href="#m5345650b60" x="630.7685" y="81.228571" style="stroke: #000000; stroke-width: 0.8"/>
      </g>
     </g>
     <g id="text_25">
      <!-- 0.30 -->
      <g transform="translate(637.7685 86.9274) scale(0.15 -0.15)">
       <use xlink:href="#DejaVuSans-30"/>
       <use xlink:href="#DejaVuSans-2e" x="63.623047"/>
       <use xlink:href="#DejaVuSans-33" x="95.410156"/>
       <use xlink:href="#DejaVuSans-30" x="159.033203"/>
      </g>
     </g>
    </g>
    <g id="ytick_17">
     <g id="line2d_23">
      <g>
       <use xlink:href="#m5345650b60" x="630.7685" y="31.2" style="stroke: #000000; stroke-width: 0.8"/>
      </g>
     </g>
     <g id="text_26">
      <!-- 0.40 -->
      <g transform="translate(637.7685 36.898828) scale(0.15 -0.15)">
       <defs>
        <path id="DejaVuSans-34" d="M 2419 4116 
L 825 1625 
L 2419 1625 
L 2419 4116 
z
M 2253 4666 
L 3047 4666 
L 3047 1625 
L 3713 1625 
L 3713 1100 
L 3047 1100 
L 3047 0 
L 2419 0 
L 2419 1100 
L 313 1100 
L 313 1709 
L 2253 4666 
z
" transform="scale(0.015625)"/>
       </defs>
       <use xlink:href="#DejaVuSans-30"/>
       <use xlink:href="#DejaVuSans-2e" x="63.623047"/>
       <use xlink:href="#DejaVuSans-34" x="95.410156"/>
       <use xlink:href="#DejaVuSans-30" x="159.033203"/>
      </g>
     </g>
    </g>
   </g>
   <g id="LineCollection_1"/>
   <g id="patch_8">
    <path d="M 613.2585 381.4 
L 622.0135 381.4 
L 630.7685 381.4 
L 630.7685 31.2 
L 622.0135 31.2 
L 613.2585 31.2 
L 613.2585 381.4 
z
" style="fill: none; stroke: #000000; stroke-width: 0.8; stroke-linejoin: miter; stroke-linecap: square"/>
   </g>
  </g>
 </g>
 <defs>
  <clipPath id="pfc80e62ba5">
   <rect x="69.59" y="31.2" width="511.688" height="350.2"/>
  </clipPath>
  <clipPath id="p2112d07204">
   <rect x="613.2585" y="31.2" width="17.51" height="350.2"/>
  </clipPath>
 </defs>
</svg>
